SplineFontDB: 3.0
FontName: stmary10
FullName: stmary10
FamilyName: stmary10
Weight: Roman
Copyright: Copyright (c) Taco Hoekwater, 1998. All rights reserved.
Version: 001.001
ItalicAngle: 0
UnderlinePosition: -100
UnderlineWidth: 50
Ascent: 800
Descent: 200
LayerCount: 2
Layer: 0 0 "Back"  1
Layer: 1 0 "Zeichenebene"  0
OS2Version: 0
OS2_WeightWidthSlopeOnly: 0
OS2_UseTypoMetrics: 0
CreationTime: 1302307949
ModificationTime: 1302307949
OS2TypoAscent: 0
OS2TypoAOffset: 1
OS2TypoDescent: 0
OS2TypoDOffset: 1
OS2TypoLinegap: 0
OS2WinAscent: 0
OS2WinAOffset: 1
OS2WinDescent: 0
OS2WinDOffset: 1
HheadAscent: 0
HheadAOffset: 1
HheadDescent: 0
HheadDOffset: 1
OS2Vendor: 'PfEd'
DEI: 91125
Encoding: Custom
UnicodeInterp: none
NameList: Adobe Glyph List
DisplaySize: -96
AntiAlias: 1
FitToEm: 1
WinInfo: 90 10 6
BeginPrivate: 9
BlueValues 7 [ 0 0 ]
BlueScale 7 0.04379
BlueShift 1 7
BlueFuzz 1 1
StdHW 6 [ 25 ]
StdVW 6 [ 25 ]
ForceBold 5 false
StemSnapH 15 [ 25 40 67 81 ]
StemSnapV 15 [ 25 40 67 81 ]
EndPrivate
BeginChars: 256 128

StartChar: shortrightarrow
Encoding: 1 8594 0
Width: 778
Flags: MW
HStem: 72 21<538.5 539 539 547> 230 40<68.5 636 75 636> 408 20G<539 547 547 549.5>
LayerCount: 2
Fore
SplineSet
713 260 m 0
 716 259 718 257 720 254 c 1
 720 252 721 251 721 250 c 2
 720 246 l 1
 718 243 716 241 713 240 c 0
 642 210 585 152 558 79 c 0
 556 75 552 72 547 72 c 2
 539 72 l 2
 538 72 536 72 535 73 c 0
 530 75 528 79 528 83 c 2
 528 87 l 1
 550 145 588 194 636 230 c 1
 75 230 l 2
 62 230 55 240 55 250 c 0
 55 260 62 270 75 270 c 2
 636 270 l 1
 588 306 550 355 528 413 c 1
 528 417 l 2
 528 422 532 428 539 428 c 2
 547 428 l 2
 552 428 556 425 558 421 c 0
 585 348 642 290 713 260 c 0
EndSplineSet
EndChar

StartChar: shortuparrow
Encoding: 2 8593 1
Width: 500
Flags: MW
HStem: -83 21<244 254> 564 20G<248 250>
VStem: 229 40<-63 499>
LayerCount: 2
Fore
SplineSet
253 583 m 2
 256 581 258 579 259 576 c 0
 289 504 346 448 419 420 c 0
 423 418 426 414 426 410 c 2
 426 401 l 2
 426 395 421 390 415 390 c 1
 411 391 l 1
 354 413 305 451 269 499 c 1
 269 -63 l 2
 269 -77 259 -83 249 -83 c 0
 239 -83 229 -77 229 -63 c 2
 229 499 l 1
 193 451 144 413 87 391 c 1
 83 390 l 1
 77 390 72 395 72 401 c 2
 72 410 l 2
 72 414 75 418 79 420 c 0
 152 448 209 504 239 576 c 0
 241 581 246 584 250 584 c 1
 253 583 l 2
EndSplineSet
EndChar

StartChar: shortdownarrow
Encoding: 3 8595 2
Width: 500
Flags: MW
HStem: -84 21<248 250> 563 20G<229 254 244 269>
VStem: 229 40<1 563 1 569.5>
LayerCount: 2
Fore
SplineSet
259 -76 m 0
 257 -81 252 -84 248 -84 c 1
 245 -83 l 2
 242 -81 240 -79 239 -76 c 0
 209 -4 152 52 79 80 c 0
 75 82 72 86 72 90 c 2
 72 99 l 2
 72 104 77 110 83 110 c 1
 87 109 l 1
 144 87 193 49 229 1 c 1
 229 563 l 2
 229 576 239 583 249 583 c 0
 259 583 269 576 269 563 c 2
 269 1 l 1
 305 49 354 87 411 109 c 1
 415 110 l 2
 419 110 424 107 425 103 c 0
 426 101 426 100 426 99 c 2
 426 90 l 2
 426 86 423 82 419 80 c 0
 346 52 289 -4 259 -76 c 0
EndSplineSet
EndChar

StartChar: Yup
Encoding: 4 -1 3
Width: 556
Flags: MW
HStem: 28 21<72.5 77.5 475.5 480.5> 508 20G<257 282.5 271.5 297>
VStem: 257 40<258 508 258 513.5>
LayerCount: 2
Fore
SplineSet
257 508 m 2
 257 519 266 528 277 528 c 0
 288 528 297 519 297 508 c 2
 297 258 l 1
 492 62 l 2
 496 58 498 52 498 47 c 0
 498 42 496 37 492 33 c 0
 488 29 483 28 478 28 c 0
 473 28 468 29 464 33 c 2
 277 222 l 1
 90 33 l 2
 86 29 80 28 75 28 c 0
 70 28 65 29 61 33 c 0
 57 37 55 42 55 47 c 0
 55 52 57 58 61 62 c 2
 257 258 l 1
 257 508 l 2
EndSplineSet
EndChar

StartChar: Ydown
Encoding: 5 -1 4
Width: 556
Flags: MW
HStem: -28 21<271.5 282.5> 452 20G<72.5 77.5 475.5 480.5>
VStem: 257 40<-8 242>
LayerCount: 2
Fore
SplineSet
297 -8 m 2
 297 -19 288 -28 277 -28 c 0
 266 -28 257 -19 257 -8 c 2
 257 242 l 1
 61 438 l 2
 57 442 55 447 55 452 c 0
 55 457 57 463 61 467 c 0
 65 470 70 472 75 472 c 0
 80 472 86 470 90 467 c 2
 277 278 l 1
 464 467 l 2
 468 470 473 472 478 472 c 0
 483 472 488 470 492 467 c 0
 496 463 498 457 498 452 c 0
 498 447 496 442 492 438 c 2
 297 242 l 1
 297 -8 l 2
EndSplineSet
EndChar

StartChar: Yleft
Encoding: 6 -1 5
Width: 611
Flags: MW
HStem: 28 21<531.5 536.5> 230 40<69.5 324 75 324> 452 20G<531.5 536.5>
LayerCount: 2
Fore
SplineSet
75 230 m 2
 64 230 55 239 55 250 c 0
 55 261 64 270 75 270 c 2
 324 270 l 1
 519 466 l 2
 523 470 529 472 534 472 c 0
 539 472 544 470 548 467 c 0
 552 463 554 457 554 452 c 0
 554 447 552 442 548 438 c 2
 361 250 l 1
 548 62 l 2
 552 58 554 52 554 47 c 0
 554 42 552 37 548 33 c 0
 544 30 539 28 534 28 c 0
 529 28 523 30 519 34 c 2
 324 230 l 1
 75 230 l 2
EndSplineSet
EndChar

StartChar: Yright
Encoding: 7 -1 6
Width: 611
Flags: MW
HStem: 28 21<72.5 77.5> 230 40<285 534 285 534> 452 20G<72.5 77.5>
LayerCount: 2
Fore
SplineSet
534 270 m 2
 545 270 554 261 554 250 c 0
 554 239 545 230 534 230 c 2
 285 230 l 1
 90 34 l 2
 86 30 80 28 75 28 c 0
 70 28 65 30 61 33 c 0
 57 37 55 42 55 47 c 0
 55 52 57 58 61 62 c 2
 249 250 l 1
 61 438 l 2
 57 442 55 447 55 452 c 0
 55 457 57 463 61 467 c 0
 65 470 70 472 75 472 c 0
 80 472 86 470 90 466 c 2
 285 270 l 1
 534 270 l 2
EndSplineSet
EndChar

StartChar: varcurlyvee
Encoding: 8 -1 7
Width: 667
Flags: MW
HStem: -217 21<326.5 337.5> 674 20G<17 22 643 648>
VStem: 312 40<-202.5 -33.5>
LayerCount: 2
Fore
SplineSet
8 659 m 0
 3 663 0 669 0 675 c 0
 0 679 1 683 4 687 c 0
 8 692 14 694 20 694 c 0
 24 694 29 693 32 690 c 0
 215 547 299 333 332 106 c 1
 366 333 449 547 632 690 c 0
 636 693 641 694 645 694 c 0
 651 694 657 692 660 687 c 0
 663 683 665 679 665 674 c 0
 665 668 662 662 657 659 c 0
 409 465 352 130 352 -197 c 0
 352 -208 343 -217 332 -217 c 0
 321 -217 312 -208 312 -197 c 0
 312 130 255 465 8 659 c 0
EndSplineSet
EndChar

StartChar: varcurlywedge
Encoding: 9 -1 8
Width: 667
Flags: MW
HStem: -217 21<17 22.5 642.5 648> 674 20G<326.5 337.5>
VStem: 312 40<512.5 679.5>
LayerCount: 2
Fore
SplineSet
33 -212 m 0
 29 -215 25 -217 20 -217 c 0
 14 -217 9 -214 5 -210 c 0
 2 -206 0 -201 0 -196 c 0
 0 -190 3 -185 7 -181 c 0
 246 22 312 351 312 674 c 0
 312 685 321 694 332 694 c 0
 343 694 352 685 352 674 c 0
 352 351 419 22 658 -181 c 0
 662 -185 665 -190 665 -196 c 0
 665 -201 663 -206 660 -210 c 0
 656 -214 651 -217 645 -217 c 0
 640 -217 636 -215 632 -212 c 0
 453 -60 367 157 332 387 c 1
 298 157 212 -60 33 -212 c 0
EndSplineSet
EndChar

StartChar: minuso
Encoding: 10 -1 9
Width: 778
Flags: MW
HStem: 28 40<364 412 364 417.5> 230 40<69.5 166 75 166 206 569 609 700> 432 40<364 412>
VStem: 166 40<230 230> 569 40<230 230>
LayerCount: 2
Fore
SplineSet
75 230 m 2
 64 230 55 239 55 250 c 0
 55 261 64 270 75 270 c 2
 166 270 l 1
 171 322 194 370 231 407 c 0
 272 449 329 472 388 472 c 0
 447 472 503 449 545 407 c 0
 582 370 605 322 609 270 c 1
 700 270 l 2
 711 270 720 261 720 250 c 0
 720 239 711 230 700 230 c 2
 609 230 l 1
 605 178 582 130 545 93 c 0
 503 51 447 28 388 28 c 0
 329 28 272 51 231 93 c 0
 194 130 171 178 166 230 c 1
 75 230 l 2
517 121 m 0
 546 151 564 189 569 230 c 1
 206 230 l 1
 210 189 230 151 259 121 c 0
 293 87 340 68 388 68 c 0
 436 68 483 87 517 121 c 0
259 379 m 0
 230 349 210 311 206 270 c 1
 569 270 l 1
 564 311 546 349 517 379 c 0
 483 413 436 432 388 432 c 0
 340 432 293 413 259 379 c 0
EndSplineSet
EndChar

StartChar: baro
Encoding: 11 -1 10
Width: 556
Flags: MW
HStem: -83 21<271.5 282.5> 30 40<257 257> 430 40<257 257> 563 20G<257 282.5 271.5 297>
VStem: 56 40<226 274 226 279.5> 257 40<-63 30 70 430 470 563> 458 40<226 274>
LayerCount: 2
Fore
SplineSet
257 563 m 2
 257 574 266 583 277 583 c 0
 288 583 297 574 297 563 c 2
 297 470 l 1
 348 465 397 443 433 407 c 0
 475 365 498 309 498 250 c 0
 498 191 475 135 433 93 c 0
 397 57 348 35 297 30 c 1
 297 -63 l 2
 297 -74 288 -83 277 -83 c 0
 266 -83 257 -74 257 -63 c 2
 257 30 l 1
 205 35 157 57 121 93 c 0
 79 135 56 191 56 250 c 0
 56 309 79 365 120 406 c 0
 157 443 205 465 257 470 c 1
 257 563 l 2
149 122 m 0
 178 93 216 74 257 70 c 1
 257 430 l 1
 216 426 178 407 149 378 c 0
 115 344 96 298 96 250 c 0
 96 202 115 156 149 122 c 0
405 378 m 0
 376 407 338 426 297 430 c 1
 297 70 l 1
 338 74 376 93 405 122 c 0
 439 156 458 202 458 250 c 0
 458 298 439 344 405 378 c 0
EndSplineSet
EndChar

StartChar: sslash
Encoding: 12 -1 11
Width: 667
Flags: MW
HStem: -250 21<75 80 241 246> 730 20G<418 423 585 590>
LayerCount: 2
Fore
SplineSet
404 737 m 2
 406 745 414 750 422 750 c 0
 424 750 427 750 429 749 c 0
 437 746 442 739 442 731 c 0
 442 729 442 726 441 723 c 2
 94 -237 l 2
 92 -245 84 -250 76 -250 c 0
 74 -250 71 -250 69 -249 c 0
 61 -246 56 -239 56 -231 c 0
 56 -229 56 -226 57 -223 c 2
 404 737 l 2
570 737 m 2
 573 745 581 750 589 750 c 0
 591 750 594 750 596 749 c 0
 604 746 609 738 609 730 c 0
 609 728 609 725 608 723 c 2
 261 -237 l 2
 258 -245 250 -250 242 -250 c 0
 240 -250 237 -250 235 -249 c 0
 227 -246 222 -238 222 -230 c 0
 222 -228 222 -225 223 -223 c 2
 570 737 l 2
EndSplineSet
EndChar

StartChar: bbslash
Encoding: 13 -1 12
Width: 667
Flags: MW
HStem: -250 21<418 423 585 590> 730 20G<75 80 241 246>
LayerCount: 2
Fore
SplineSet
441 -223 m 2
 442 -226 442 -229 442 -231 c 0
 442 -239 437 -246 429 -249 c 0
 427 -250 424 -250 422 -250 c 0
 414 -250 406 -245 404 -237 c 2
 57 723 l 2
 56 726 56 729 56 731 c 0
 56 739 61 746 69 749 c 0
 71 750 74 750 76 750 c 0
 84 750 92 745 94 737 c 2
 441 -223 l 2
608 -223 m 2
 609 -225 609 -228 609 -230 c 0
 609 -238 604 -246 596 -249 c 0
 594 -250 591 -250 589 -250 c 0
 581 -250 573 -245 570 -237 c 2
 223 723 l 2
 222 725 222 728 222 730 c 0
 222 738 227 746 235 749 c 0
 237 750 240 750 242 750 c 0
 250 750 258 745 261 737 c 2
 608 -223 l 2
EndSplineSet
EndChar

StartChar: moo
Encoding: 14 -1 13
Width: 778
Flags: MW
HStem: -22 40<214.5 274.5 501.5 561> 230 40<125.5 368 131 367 408 645> 502 20G<368 393.5 382.5 408>
VStem: 368 40<270 502>
LayerCount: 2
Fore
SplineSet
368 502 m 2
 368 513 377 522 388 522 c 0
 399 522 408 513 408 502 c 2
 408 270 l 1
 645 270 l 2
 656 270 665 261 665 250 c 0
 665 239 656 230 645 230 c 2
 408 230 l 1
 413 115 458 18 542 18 c 0
 580 18 614 43 626 79 c 0
 628 88 636 94 645 94 c 0
 647 94 649 94 651 93 c 0
 659 90 665 81 665 73 c 0
 665 71 665 70 664 68 c 0
 647 14 598 -22 542 -22 c 0
 461 -22 412 37 388 113 c 1
 363 37 315 -22 234 -22 c 0
 178 -22 128 14 112 68 c 0
 111 70 111 72 111 74 c 0
 111 82 116 90 125 93 c 0
 127 94 129 94 131 94 c 0
 140 94 148 88 150 79 c 0
 161 43 195 18 234 18 c 0
 318 18 363 115 367 230 c 1
 131 230 l 2
 120 230 111 239 111 250 c 0
 111 261 120 270 131 270 c 2
 368 270 l 1
 368 502 l 2
EndSplineSet
EndChar

StartChar: varotimes
Encoding: 15 -1 14
Width: 778
Flags: MW
HStem: -82 40<352.5 423.5 352.5 432> 542 40<352.5 423.5>
VStem: 56 40<214.5 285.5 214.5 294> 680 40<214.5 285.5>
LayerCount: 2
Fore
SplineSet
388 278 m 1
 580 470 l 1
 527 517 459 542 388 542 c 0
 317 542 249 517 196 470 c 1
 388 278 l 1
153 485 m 0
 215 547 300 582 388 582 c 0
 476 582 561 547 623 485 c 0
 685 423 720 338 720 250 c 0
 720 162 685 77 623 15 c 0
 561 -47 476 -82 388 -82 c 0
 300 -82 215 -47 153 15 c 0
 90 77 56 162 56 250 c 0
 56 338 90 423 153 485 c 0
608 58 m 1
 655 111 680 179 680 250 c 0
 680 321 655 389 608 442 c 1
 416 250 l 1
 608 58 l 1
196 30 m 1
 249 -17 317 -42 388 -42 c 0
 459 -42 527 -17 580 30 c 1
 388 222 l 1
 196 30 l 1
167 442 m 1
 121 389 96 321 96 250 c 0
 96 179 121 111 167 58 c 1
 359 250 l 1
 167 442 l 1
EndSplineSet
EndChar

StartChar: varoast
Encoding: 16 -1 15
Width: 778
Flags: MW
HStem: -82 40<349 426.5 349 432> 542 40<349 426.5>
VStem: 56 40<211 289 211 294> 362 52<49 55 445 451> 680 40<211 289>
LayerCount: 2
Fore
SplineSet
680 250 m 0
 680 328 649 402 595 457 c 0
 540 512 465 542 388 542 c 0
 310 542 236 512 181 457 c 0
 126 402 96 328 96 250 c 0
 96 172 126 98 181 43 c 0
 236 -12 310 -42 388 -42 c 0
 465 -42 540 -12 595 43 c 0
 649 98 680 172 680 250 c 0
153 485 m 0
 215 547 300 582 388 582 c 0
 476 582 561 547 623 485 c 0
 685 423 720 338 720 250 c 0
 720 162 685 77 623 15 c 0
 561 -47 476 -82 388 -82 c 0
 300 -82 215 -47 153 15 c 0
 90 77 56 162 56 250 c 0
 56 338 90 423 153 485 c 0
199 141 m 0
 196 146 195 150 195 155 c 0
 195 164 200 172 208 177 c 1
 365 250 l 1
 208 323 l 1
 200 328 195 336 195 345 c 0
 195 350 196 354 199 359 c 0
 204 368 212 373 221 373 c 0
 225 373 230 372 234 369 c 2
 376 270 l 1
 362 445 l 1
 362 459 374 469 388 469 c 0
 402 469 414 458 414 444 c 1
 399 270 l 1
 541 369 l 2
 545 372 550 373 554 373 c 0
 563 373 572 368 577 359 c 0
 580 354 581 350 581 345 c 0
 581 336 576 328 568 323 c 1
 411 250 l 1
 568 177 l 1
 576 172 581 164 581 155 c 0
 581 150 580 146 577 141 c 0
 572 132 563 127 554 127 c 0
 550 127 545 128 541 131 c 2
 399 230 l 1
 414 56 l 1
 414 42 402 31 388 31 c 0
 374 31 362 41 362 55 c 1
 376 230 l 1
 234 131 l 2
 230 128 225 127 221 127 c 0
 212 127 204 132 199 141 c 0
EndSplineSet
EndChar

StartChar: varobar
Encoding: 17 -1 16
Width: 778
Flags: MW
HStem: -82 40<368 368> 542 40<368 368 408 408>
VStem: 56 40<211 289 211 294> 368 40<-42 542 -42 542> 680 40<211 289>
LayerCount: 2
Fore
SplineSet
680 250 m 0
 680 328 649 402 595 457 c 0
 545 507 478 537 408 542 c 1
 408 -42 l 1
 478 -37 545 -7 595 43 c 0
 649 98 680 172 680 250 c 0
153 485 m 0
 215 547 300 582 388 582 c 0
 476 582 561 547 623 485 c 0
 685 423 720 338 720 250 c 0
 720 162 685 77 623 15 c 0
 561 -47 476 -82 388 -82 c 0
 300 -82 215 -47 153 15 c 0
 90 77 56 162 56 250 c 0
 56 338 90 423 153 485 c 0
96 250 m 0
 96 172 126 98 181 43 c 0
 231 -7 298 -37 368 -42 c 1
 368 542 l 1
 298 537 231 507 181 457 c 0
 126 402 96 328 96 250 c 0
EndSplineSet
EndChar

StartChar: varodot
Encoding: 18 -1 17
Width: 778
Flags: MW
HStem: -82 40<349 426.5 349 432> 542 40<349 426.5>
VStem: 56 40<211 289 211 294> 680 40<211 289>
LayerCount: 2
Fore
SplineSet
680 250 m 0
 680 328 649 402 595 457 c 0
 540 512 465 542 388 542 c 0
 310 542 236 512 181 457 c 0
 126 402 96 328 96 250 c 0
 96 172 126 98 181 43 c 0
 236 -12 310 -42 388 -42 c 0
 465 -42 540 -12 595 43 c 0
 649 98 680 172 680 250 c 0
153 485 m 0
 215 547 300 582 388 582 c 0
 476 582 561 547 623 485 c 0
 685 423 720 338 720 250 c 0
 720 162 685 77 623 15 c 0
 561 -47 476 -82 388 -82 c 0
 300 -82 215 -47 153 15 c 0
 90 77 56 162 56 250 c 0
 56 338 90 423 153 485 c 0
388 319 m 0
 406 319 424 311 436 299 c 0
 449 286 456 268 456 250 c 0
 456 232 449 214 436 201 c 0
 424 189 406 181 388 181 c 0
 370 181 352 189 339 201 c 1
 327 214 319 232 319 250 c 0
 319 268 327 286 339 299 c 1
 352 311 370 319 388 319 c 0
EndSplineSet
EndChar

StartChar: varoslash
Encoding: 19 -1 18
Width: 778
Flags: MW
HStem: -82 40<352.5 426.5 352.5 432> 542 40<349 423.5>
VStem: 56 40<214.5 289 214.5 294> 680 40<211 285.5>
LayerCount: 2
Fore
SplineSet
167 58 m 1
 580 470 l 1
 527 517 459 542 388 542 c 0
 310 542 236 512 181 457 c 0
 126 402 96 328 96 250 c 0
 96 179 121 111 167 58 c 1
153 485 m 0
 215 547 300 582 388 582 c 0
 476 582 561 547 623 485 c 0
 685 423 720 338 720 250 c 0
 720 162 685 77 623 15 c 0
 561 -47 476 -82 388 -82 c 0
 300 -82 215 -47 153 15 c 0
 90 77 56 162 56 250 c 0
 56 338 90 423 153 485 c 0
595 43 m 0
 649 98 680 172 680 250 c 0
 680 321 655 389 608 442 c 1
 196 30 l 1
 249 -17 317 -42 388 -42 c 0
 465 -42 540 -12 595 43 c 0
EndSplineSet
EndChar

StartChar: varobslash
Encoding: 20 -1 19
Width: 778
Flags: MW
HStem: -82 40<349 423.5 349 432> 542 40<352.5 426.5>
VStem: 56 40<211 285.5 211 294> 680 40<214.5 289>
LayerCount: 2
Fore
SplineSet
680 250 m 0
 680 328 649 402 595 457 c 0
 540 512 465 542 388 542 c 0
 317 542 249 517 196 470 c 1
 608 58 l 1
 655 111 680 179 680 250 c 0
153 485 m 0
 215 547 300 582 388 582 c 0
 476 582 561 547 623 485 c 0
 685 423 720 338 720 250 c 0
 720 162 685 77 623 15 c 0
 561 -47 476 -82 388 -82 c 0
 300 -82 215 -47 153 15 c 0
 90 77 56 162 56 250 c 0
 56 338 90 423 153 485 c 0
181 43 m 0
 236 -12 310 -42 388 -42 c 0
 459 -42 527 -17 580 30 c 1
 167 442 l 1
 121 389 96 321 96 250 c 0
 96 172 126 98 181 43 c 0
EndSplineSet
EndChar

StartChar: varocircle
Encoding: 21 -1 20
Width: 778
Flags: MW
HStem: -82 40<349 426.5 349 432> 74 40<370 406 370 411.5> 386 40<370 406> 542 40<349 426.5>
VStem: 56 40<211 289 211 294> 212 40<232 268 232 273.5> 524 40<232 268> 680 40<211 289>
LayerCount: 2
Fore
SplineSet
680 250 m 0
 680 328 649 402 595 457 c 0
 540 512 465 542 388 542 c 0
 310 542 236 512 181 457 c 0
 126 402 96 328 96 250 c 0
 96 172 126 98 181 43 c 0
 236 -12 310 -42 388 -42 c 0
 465 -42 540 -12 595 43 c 0
 649 98 680 172 680 250 c 0
153 485 m 0
 215 547 300 582 388 582 c 0
 476 582 561 547 623 485 c 0
 685 423 720 338 720 250 c 0
 720 162 685 77 623 15 c 0
 561 -47 476 -82 388 -82 c 0
 300 -82 215 -47 153 15 c 0
 90 77 56 162 56 250 c 0
 56 338 90 423 153 485 c 0
524 250 m 0
 524 286 510 321 485 346 c 0
 459 372 424 386 388 386 c 0
 352 386 317 372 292 347 c 0
 266 321 252 286 252 250 c 0
 252 214 266 179 291 154 c 0
 317 128 352 114 388 114 c 0
 424 114 459 128 484 153 c 0
 510 179 524 214 524 250 c 0
263 375 m 0
 296 408 341 426 388 426 c 0
 435 426 479 408 513 375 c 0
 546 342 564 297 564 250 c 0
 564 203 546 158 513 125 c 0
 479 92 435 74 388 74 c 0
 341 74 296 92 263 125 c 0
 230 158 212 203 212 250 c 0
 212 297 230 342 263 375 c 0
EndSplineSet
EndChar

StartChar: varoplus
Encoding: 22 -1 21
Width: 778
Flags: MW
HStem: -82 40<368 368> 230 40<96 368 96 368 408 680> 542 40<368 368 408 408>
VStem: 56 40<230 230> 368 40<-42 230 270 542> 680 40<230 230 270 270>
LayerCount: 2
Fore
SplineSet
680 270 m 1
 675 340 645 407 595 457 c 0
 545 507 478 537 408 542 c 1
 408 270 l 1
 680 270 l 1
153 485 m 0
 215 547 300 582 388 582 c 0
 476 582 561 547 623 485 c 0
 685 423 720 338 720 250 c 0
 720 162 685 77 623 15 c 0
 561 -47 476 -82 388 -82 c 0
 300 -82 215 -47 153 15 c 0
 90 77 56 162 56 250 c 0
 56 338 90 423 153 485 c 0
408 -42 m 1
 478 -37 545 -7 595 43 c 0
 645 93 675 160 680 230 c 1
 408 230 l 1
 408 -42 l 1
96 230 m 1
 101 160 131 93 181 43 c 0
 231 -7 298 -37 368 -42 c 1
 368 230 l 1
 96 230 l 1
368 542 m 1
 298 537 231 507 181 457 c 0
 131 407 101 340 96 270 c 1
 368 270 l 1
 368 542 l 1
EndSplineSet
EndChar

StartChar: varominus
Encoding: 23 -1 22
Width: 778
Flags: MW
HStem: -82 40<349 426.5 349 432> 230 40<96 680 96 680> 542 40<349 426.5>
VStem: 56 40<230 230> 680 40<230 230 270 270>
LayerCount: 2
Fore
SplineSet
680 270 m 1
 675 340 645 407 595 457 c 0
 540 512 465 542 388 542 c 0
 310 542 236 512 181 457 c 0
 131 407 101 340 96 270 c 1
 680 270 l 1
153 485 m 0
 215 547 300 582 388 582 c 0
 476 582 561 547 623 485 c 0
 685 423 720 338 720 250 c 0
 720 162 685 77 623 15 c 0
 561 -47 476 -82 388 -82 c 0
 300 -82 215 -47 153 15 c 0
 90 77 56 162 56 250 c 0
 56 338 90 423 153 485 c 0
388 -42 m 0
 465 -42 540 -12 595 43 c 0
 645 93 675 160 680 230 c 1
 96 230 l 1
 101 160 131 93 181 43 c 0
 236 -12 310 -42 388 -42 c 0
EndSplineSet
EndChar

StartChar: boxast
Encoding: 24 -1 23
Width: 778
Flags: MW
HStem: -55 40<97.5 652 123 652 123 673> 515 40<123 652 123 123>
VStem: 83 40<-15 515 -15 535 -15 540.5> 361 53 652 40<-15 515 515 515>
LayerCount: 2
Fore
SplineSet
83 -35 m 2
 83 535 l 2
 83 546 92 555 103 555 c 2
 673 555 l 2
 684 555 692 546 692 535 c 2
 692 -35 l 2
 692 -46 684 -55 673 -55 c 2
 103 -55 l 2
 92 -55 83 -46 83 -35 c 2
652 -15 m 1
 652 515 l 1
 123 515 l 1
 123 -15 l 1
 652 -15 l 1
215 150 m 0
 213 154 212 159 212 164 c 0
 212 173 216 182 225 186 c 2
 365 250 l 1
 225 314 l 2
 216 318 212 327 212 336 c 0
 212 341 213 346 215 350 c 0
 220 358 229 364 238 364 c 0
 243 364 247 362 251 359 c 2
 376 270 l 1
 362 426 l 1
 362 439 374 449 388 449 c 0
 402 449 414 439 414 426 c 1
 400 270 l 1
 525 359 l 2
 529 362 533 364 538 364 c 0
 547 364 555 358 560 350 c 0
 563 345 564 341 564 336 c 0
 564 327 559 318 551 314 c 2
 411 250 l 1
 551 186 l 2
 559 182 564 173 564 164 c 0
 564 159 563 155 560 150 c 0
 555 142 547 136 538 136 c 0
 533 136 529 138 525 141 c 2
 400 230 l 1
 414 74 l 1
 414 61 402 51 388 51 c 0
 374 51 362 61 362 74 c 1
 376 230 l 1
 251 141 l 2
 247 138 243 136 238 136 c 0
 229 136 220 142 215 150 c 0
EndSplineSet
EndChar

StartChar: boxbar
Encoding: 25 -1 24
Width: 778
Flags: MW
HStem: -55 40<97.5 368 123 368 408 652> 515 40<123 368 123 123 408 408 408 652>
VStem: 83 40<-15 515 -15 535 -15 540.5> 368 40<-15 515 -15 515> 652 40<-15 515 515 515>
LayerCount: 2
Fore
SplineSet
83 -35 m 2
 83 535 l 2
 83 546 92 555 103 555 c 2
 673 555 l 2
 684 555 692 546 692 535 c 2
 692 -35 l 2
 692 -46 684 -55 673 -55 c 2
 103 -55 l 2
 92 -55 83 -46 83 -35 c 2
368 -15 m 1
 368 515 l 1
 123 515 l 1
 123 -15 l 1
 368 -15 l 1
652 -15 m 1
 652 515 l 1
 408 515 l 1
 408 -15 l 1
 652 -15 l 1
EndSplineSet
EndChar

StartChar: boxdot
Encoding: 26 -1 25
Width: 778
Flags: MW
HStem: -55 40<97.5 652 123 652 123 673> 515 40<123 652 123 123>
VStem: 83 40<-15 515 -15 535 -15 540.5> 652 40<-15 515 515 515>
LayerCount: 2
Fore
SplineSet
83 -35 m 2
 83 535 l 2
 83 546 92 555 103 555 c 2
 673 555 l 2
 684 555 692 546 692 535 c 2
 692 -35 l 2
 692 -46 684 -55 673 -55 c 2
 103 -55 l 2
 92 -55 83 -46 83 -35 c 2
652 -15 m 1
 652 515 l 1
 123 515 l 1
 123 -15 l 1
 652 -15 l 1
388 319 m 0
 406 319 424 311 436 299 c 0
 449 286 456 268 456 250 c 0
 456 232 449 214 436 201 c 0
 424 189 406 181 388 181 c 0
 370 181 352 189 339 201 c 1
 327 214 319 232 319 250 c 0
 319 268 327 286 339 299 c 1
 352 311 370 319 388 319 c 0
EndSplineSet
EndChar

StartChar: boxslash
Encoding: 27 -1 26
Width: 778
Flags: MW
HStem: -55 40<152 652 152 673> 515 40<123 624 123 123>
VStem: 83 40<14 14 14 515> 652 40<-15 486 486 486>
LayerCount: 2
Fore
SplineSet
83 -35 m 2
 83 535 l 2
 83 546 92 555 103 555 c 2
 673 555 l 2
 678 555 683 553 687 549 c 0
 690 545 692 540 692 535 c 2
 692 -35 l 2
 692 -46 684 -55 673 -55 c 2
 103 -55 l 2
 92 -55 83 -46 83 -35 c 2
123 14 m 1
 624 515 l 1
 123 515 l 1
 123 14 l 1
152 -15 m 1
 652 -15 l 1
 652 486 l 1
 152 -15 l 1
EndSplineSet
EndChar

StartChar: boxbslash
Encoding: 28 -1 27
Width: 778
Flags: MW
HStem: -55 40<97.5 624 123 624 123 673> 515 40<152 652 152 152>
VStem: 83 40<-15 486 -15 535> 652 40<14 515 515 515>
LayerCount: 2
Fore
SplineSet
83 -35 m 2
 83 535 l 2
 83 540 85 545 89 549 c 0
 93 553 98 555 103 555 c 2
 673 555 l 2
 684 555 692 546 692 535 c 2
 692 -35 l 2
 692 -46 684 -55 673 -55 c 2
 103 -55 l 2
 92 -55 83 -46 83 -35 c 2
652 14 m 1
 652 515 l 1
 152 515 l 1
 652 14 l 1
123 486 m 1
 123 -15 l 1
 624 -15 l 1
 123 486 l 1
EndSplineSet
EndChar

StartChar: boxcircle
Encoding: 29 -1 28
Width: 778
Flags: MW
HStem: -55 40<97.5 652 123 652 123 673> 108 40<374.5 401.5 374.5 407> 352 40<374.5 401.5> 515 40<123 652 123 123>
VStem: 83 40<-15 515 -15 535 -15 540.5> 246 40<236.5 263.5 236.5 269> 490 40<236.5 263.5> 652 40<-15 515 515 515>
LayerCount: 2
Fore
SplineSet
490 250 m 0
 490 277 479 303 460 322 c 0
 441 341 415 352 388 352 c 0
 361 352 335 341 316 322 c 0
 296 303 286 277 286 250 c 0
 286 223 296 197 316 178 c 0
 335 159 361 148 388 148 c 0
 415 148 441 159 460 178 c 0
 479 197 490 223 490 250 c 0
287 351 m 1
 314 377 350 392 388 392 c 0
 426 392 462 377 488 351 c 0
 515 324 530 288 530 250 c 0
 530 212 515 176 489 150 c 0
 462 123 426 108 388 108 c 0
 350 108 314 123 288 149 c 0
 261 176 246 212 246 250 c 0
 246 288 261 324 287 351 c 1
83 -35 m 2
 83 535 l 2
 83 546 92 555 103 555 c 2
 673 555 l 2
 684 555 692 546 692 535 c 2
 692 -35 l 2
 692 -46 684 -55 673 -55 c 2
 103 -55 l 2
 92 -55 83 -46 83 -35 c 2
652 -15 m 1
 652 515 l 1
 123 515 l 1
 123 -15 l 1
 652 -15 l 1
EndSplineSet
EndChar

StartChar: boxbox
Encoding: 30 -1 29
Width: 778
Flags: MW
HStem: -55 40<97.5 652 123 652 123 673> 116 40<268.5 482 294 482 294 502> 344 40<294 482 294 294> 515 40<123 652 123 123>
VStem: 83 40<-15 515 -15 535 -15 540.5> 254 40<156 344 156 364 156 369.5> 482 40<156 344 344 344> 652 40<-15 515 515 515>
LayerCount: 2
Fore
SplineSet
83 -35 m 2
 83 535 l 2
 83 546 92 555 103 555 c 2
 673 555 l 2
 684 555 692 546 692 535 c 2
 692 -35 l 2
 692 -46 684 -55 673 -55 c 2
 103 -55 l 2
 92 -55 83 -46 83 -35 c 2
652 -15 m 1
 652 515 l 1
 123 515 l 1
 123 -15 l 1
 652 -15 l 1
254 136 m 2
 254 364 l 2
 254 375 263 384 274 384 c 2
 502 384 l 2
 513 384 522 375 522 364 c 2
 522 136 l 2
 522 125 513 116 502 116 c 2
 274 116 l 2
 263 116 254 125 254 136 c 2
482 156 m 1
 482 344 l 1
 294 344 l 1
 294 156 l 1
 482 156 l 1
EndSplineSet
EndChar

StartChar: boxempty
Encoding: 31 -1 30
Width: 778
Flags: MW
HStem: -55 40<97.5 652 123 652 123 673> 515 40<123 652 123 123>
VStem: 83 40<-15 515 -15 535 -15 540.5> 652 40<-15 515 515 515>
LayerCount: 2
Fore
SplineSet
83 -35 m 2
 83 535 l 2
 83 546 92 555 103 555 c 2
 673 555 l 2
 684 555 692 546 692 535 c 2
 692 -35 l 2
 692 -46 684 -55 673 -55 c 2
 103 -55 l 2
 92 -55 83 -46 83 -35 c 2
652 -15 m 1
 652 515 l 1
 123 515 l 1
 123 -15 l 1
 652 -15 l 1
EndSplineSet
EndChar

StartChar: lightning
Encoding: 32 -1 31
Width: 611
Flags: MW
HStem: -194 21<175.5 178.5> -108 29<348.5 397 387 395> 674 20G<364 369>
LayerCount: 2
Fore
SplineSet
169 -191 m 0
 167 -189 166 -186 166 -183 c 0
 166 -106 135 -31 78 22 c 0
 76 24 75 27 75 30 c 0
 75 32 75 33 76 35 c 2
 79 42 l 2
 81 47 85 49 89 49 c 0
 92 49 95 48 97 46 c 0
 141 4 172 -50 187 -108 c 1
 342 266 l 1
 187 202 l 2
 184 201 182 200 179 200 c 0
 176 200 173 201 171 202 c 0
 163 205 159 213 159 221 c 0
 159 223 159 226 160 228 c 2
 349 682 l 2
 352 690 360 694 368 694 c 0
 370 694 373 694 375 693 c 0
 383 690 387 682 387 674 c 0
 387 672 387 669 386 667 c 2
 216 258 l 1
 372 322 l 2
 374 323 376 323 379 323 c 0
 381 323 384 323 387 322 c 0
 395 318 399 311 399 303 c 0
 399 300 399 298 398 295 c 2
 224 -124 l 1
 272 -95 329 -79 387 -79 c 2
 397 -79 l 2
 404 -79 408 -84 408 -90 c 1
 403 -102 l 2
 402 -105 399 -108 395 -108 c 2
 386 -108 l 2
 311 -108 238 -138 185 -191 c 0
 183 -193 180 -194 177 -194 c 0
 174 -194 172 -193 169 -191 c 0
EndSplineSet
EndChar

StartChar: merge
Encoding: 33 -1 32
Width: 889
Flags: MW
HStem: 0 21<80 85 333 338.5 548.5 554 802 807> 717 20G<313 318 569 574>
LayerCount: 2
Fore
SplineSet
100 14 m 2
 98 5 89 0 81 0 c 0
 79 0 77 0 75 1 c 0
 66 4 61 12 61 20 c 0
 61 22 61 25 62 27 c 2
 298 723 l 2
 300 732 309 737 317 737 c 0
 319 737 321 737 323 736 c 0
 329 734 334 729 336 723 c 2
 443 404 l 1
 551 723 l 2
 553 729 558 734 564 736 c 0
 566 737 568 737 570 737 c 0
 578 737 587 732 589 723 c 2
 825 27 l 2
 826 25 826 23 826 21 c 0
 826 12 821 4 812 1 c 0
 810 0 808 0 806 0 c 0
 798 0 789 5 787 14 c 2
 570 654 l 1
 465 342 l 1
 571 27 l 2
 572 25 572 22 572 20 c 0
 572 12 567 4 559 1 c 0
 557 0 555 0 553 0 c 0
 544 0 536 5 533 14 c 2
 443 279 l 1
 354 14 l 2
 351 5 343 0 334 0 c 0
 332 0 330 0 328 1 c 0
 320 4 315 12 315 20 c 0
 315 22 315 25 316 27 c 2
 422 342 l 1
 317 654 l 1
 100 14 l 2
EndSplineSet
EndChar

StartChar: vartimes
Encoding: 34 -1 33
Width: 556
Flags: MW
HStem: 0 21<73 78.5 474.5 480> 674 20G<74 79.5 474.5 480>
LayerCount: 2
Fore
SplineSet
58 664 m 2
 56 667 55 670 55 674 c 0
 55 681 58 688 65 691 c 0
 68 693 72 694 76 694 c 0
 83 694 89 691 93 685 c 2
 277 386 l 1
 461 685 l 2
 465 691 471 694 478 694 c 0
 482 694 485 693 489 691 c 0
 495 688 498 682 498 675 c 0
 498 671 497 667 495 664 c 2
 300 347 l 1
 495 31 l 2
 497 27 498 24 498 20 c 0
 498 13 495 7 489 3 c 0
 486 1 482 0 478 0 c 0
 471 0 465 3 461 10 c 2
 277 309 l 1
 93 10 l 2
 89 3 82 0 75 0 c 0
 71 0 68 1 65 3 c 0
 58 7 55 13 55 20 c 0
 55 24 56 28 58 31 c 2
 253 347 l 1
 58 664 l 2
EndSplineSet
EndChar

StartChar: fatsemi
Encoding: 35 -1 34
Width: 333
Flags: MW
HStem: -194 21<128 133> 0 40<146.5 175> 181 40<146.5 185> 342 40<146.5 185 146.5 196.5> 522 40<146.5 185>
VStem: 55 40<91 129.5 91 140.5 432.5 471.5> 236 40<91 129.5 432.5 471.5>
LayerCount: 2
Fore
SplineSet
95 452 m 0
 95 413 127 382 166 382 c 0
 204 382 236 413 236 452 c 0
 236 491 204 522 166 522 c 0
 127 522 95 491 95 452 c 0
166 562 m 0
 227 562 276 513 276 452 c 0
 276 391 227 342 166 342 c 0
 105 342 55 391 55 452 c 0
 55 513 105 562 166 562 c 0
95 110 m 0
 95 72 127 40 166 40 c 0
 204 40 236 72 236 110 c 0
 236 149 204 181 166 181 c 0
 127 181 95 149 95 110 c 0
114 -163 m 0
 156 -105 195 -48 218 13 c 1
 202 5 184 0 166 0 c 0
 105 0 55 49 55 110 c 0
 55 171 105 221 166 221 c 0
 227 221 276 171 276 110 c 0
 276 -4 208 -101 147 -186 c 0
 143 -192 136 -194 130 -194 c 0
 126 -194 122 -193 119 -191 c 0
 113 -187 111 -180 111 -174 c 0
 111 -170 112 -166 114 -163 c 0
EndSplineSet
EndChar

StartChar: ssearrow
Encoding: 36 -1 35
Width: 611
Flags: MW
HStem: -194 21<175.5 178.5> -108 29<348.5 401 387 395> 675 20G<529.5 538>
LayerCount: 2
Fore
SplineSet
185 -191 m 0
 183 -193 180 -194 177 -194 c 0
 174 -194 171 -193 169 -191 c 0
 167 -189 166 -186 166 -183 c 0
 166 -106 135 -31 78 22 c 0
 76 24 75 27 75 30 c 0
 75 32 75 33 76 35 c 2
 79 42 l 2
 79 44 80 45 81 46 c 0
 83 48 86 49 89 49 c 0
 92 49 94 48 97 46 c 0
 141 4 172 -50 187 -108 c 1
 515 682 l 2
 519 691 526 695 533 695 c 0
 543 695 554 686 554 675 c 0
 554 672 553 670 552 667 c 2
 224 -124 l 1
 272 -95 329 -79 387 -79 c 2
 401 -79 l 1
 405 -81 408 -87 408 -91 c 1
 403 -102 l 2
 402 -105 399 -108 395 -108 c 2
 386 -108 l 2
 311 -108 238 -138 185 -191 c 0
EndSplineSet
EndChar

StartChar: curlywedgeuparrow
Encoding: 37 -1 36
Width: 611
Flags: MW
HStem: -194 21<430.5 433.5> -108 29<212.5 214 214 222 222 223> 675 20G<71 79.5>
LayerCount: 2
Fore
SplineSet
440 -191 m 0
 438 -193 435 -194 432 -194 c 0
 429 -194 426 -193 424 -191 c 0
 371 -138 298 -108 223 -108 c 2
 214 -108 l 2
 211 -108 208 -105 206 -102 c 2
 203 -94 l 2
 202 -92 202 -91 202 -89 c 0
 202 -84 207 -79 212 -79 c 2
 222 -79 l 2
 280 -79 337 -95 385 -124 c 1
 57 667 l 2
 56 670 55 672 55 675 c 0
 55 686 66 695 76 695 c 0
 83 695 90 691 94 682 c 2
 422 -108 l 1
 437 -50 468 4 512 46 c 0
 514 48 517 49 520 49 c 0
 523 49 526 48 528 46 c 0
 529 45 530 44 530 42 c 2
 534 35 l 1
 534 31 l 2
 534 28 533 25 531 22 c 0
 475 -31 443 -106 443 -183 c 0
 443 -186 442 -189 440 -191 c 0
EndSplineSet
EndChar

StartChar: sswarrow
Encoding: 38 -1 37
Width: 667
Flags: MW
HStem: -194 21<17 22 643 648> 688 20G<330.5 333>
VStem: 311 42<622 622>
LayerCount: 2
Fore
SplineSet
343 701 m 0
 372 629 430 572 502 544 c 0
 507 543 510 539 510 534 c 1
 509 538 509 539 509 539 c 1
 509 539 510 537 510 534 c 2
 510 526 l 2
 510 520 505 515 499 515 c 2
 495 515 l 1
 438 537 389 574 353 622 c 1
 362 320 428 20 657 -159 c 0
 662 -162 665 -168 665 -174 c 0
 665 -179 663 -183 660 -187 c 0
 657 -192 651 -194 645 -194 c 0
 641 -194 636 -193 632 -190 c 0
 449 -47 366 167 332 394 c 1
 299 167 216 -47 32 -190 c 0
 29 -193 24 -194 20 -194 c 0
 14 -194 8 -192 4 -187 c 0
 1 -183 0 -179 0 -175 c 0
 0 -169 3 -163 8 -159 c 0
 236 20 302 320 311 622 c 1
 275 574 227 537 170 515 c 1
 166 515 l 2
 162 515 157 517 156 522 c 0
 155 523 155 524 155 526 c 2
 155 534 l 2
 155 539 158 543 162 544 c 0
 235 572 293 629 322 701 c 0
 324 705 328 708 333 708 c 1
 337 707 l 2
 339 706 342 703 343 701 c 0
EndSplineSet
EndChar

StartChar: curlywedgedownarrow
Encoding: 39 -1 38
Width: 667
Flags: MW
HStem: -225 21<422 424> -184 29G<77.5 86 86 115 574 587.5> 697 20G<326.5 337.5>
VStem: 38 30<-49 -24> 312 40<545.5 702.5> 597 29<-52 -25 -63 -23>
LayerCount: 2
Fore
SplineSet
14 -194 m 1
 11 -194 l 2
 9 -194 7 -194 6 -193 c 0
 3 -191 1 -189 0 -186 c 0
 0 -183 0 -180 1 -178 c 0
 26 -135 38 -86 38 -38 c 0
 38 -10 34 17 26 44 c 1
 26 48 l 2
 26 52 27 54 30 56 c 2
 36 62 l 2
 38 63 40 64 43 64 c 0
 46 64 50 63 52 60 c 2
 54 56 l 1
 63 26 68 -5 68 -36 c 0
 68 -62 64 -89 58 -115 c 1
 263 83 312 394 312 697 c 0
 312 708 321 717 332 717 c 0
 343 717 352 708 352 697 c 0
 352 394 401 83 606 -115 c 1
 600 -90 597 -65 597 -39 c 0
 597 -7 602 25 611 56 c 0
 612 61 617 64 622 64 c 0
 624 64 626 63 628 62 c 2
 635 56 l 2
 637 54 639 51 639 47 c 2
 639 44 l 1
 631 17 626 -11 626 -39 c 0
 626 -87 639 -135 663 -178 c 0
 664 -179 665 -180 665 -182 c 2
 664 -186 l 2
 663 -189 662 -191 659 -193 c 0
 658 -194 656 -194 654 -194 c 2
 651 -194 l 1
 626 -187 600 -184 575 -184 c 0
 524 -184 474 -197 429 -224 c 0
 427 -225 425 -225 423 -225 c 0
 421 -225 418 -225 416 -223 c 2
 410 -218 l 2
 407 -216 406 -213 406 -210 c 0
 406 -208 406 -205 408 -203 c 2
 411 -200 l 1
 460 -170 517 -155 574 -155 c 2
 590 -155 l 1
 436 -13 363 185 332 394 c 1
 301 185 229 -14 75 -155 c 1
 86 -155 l 2
 144 -155 202 -169 254 -200 c 0
 257 -202 259 -206 259 -210 c 0
 259 -212 259 -213 258 -215 c 2
 255 -218 l 1
 251 -220 l 1
 249 -224 246 -226 242 -226 c 0
 240 -226 238 -225 236 -224 c 0
 191 -197 141 -184 90 -184 c 0
 65 -184 39 -187 14 -194 c 1
EndSplineSet
EndChar

StartChar: fatslash
Encoding: 40 -1 39
Width: 722
Flags: MW
HStem: -250 40<293.5 509 328 509 328 523> 710 40<659 659 659 840>
LayerCount: 2
Fore
SplineSet
299 -250 m 2
 288 -250 279 -241 279 -230 c 1
 280 -223 l 1
 626 737 l 2
 629 745 637 750 645 750 c 2
 868 750 l 2
 880 750 889 741 889 730 c 0
 889 728 888 725 887 723 c 2
 542 -237 l 2
 539 -244 532 -250 523 -250 c 2
 299 -250 l 2
659 710 m 1
 328 -210 l 1
 509 -210 l 1
 840 710 l 1
 659 710 l 1
EndSplineSet
EndChar

StartChar: fatbslash
Encoding: 41 -1 40
Width: 722
Flags: MW
HStem: -250 40<417 616 435 616 435 645> 710 40<104 104 104 285>
LayerCount: 2
Fore
SplineSet
665 -230 m 1
 665 -241 656 -250 645 -250 c 2
 421 -250 l 2
 413 -250 405 -245 402 -237 c 2
 57 723 l 2
 56 725 55 728 55 730 c 0
 55 738 60 746 69 749 c 0
 71 750 73 750 75 750 c 2
 299 750 l 2
 308 750 315 744 318 737 c 2
 664 -223 l 1
 665 -230 l 1
104 710 m 1
 435 -210 l 1
 616 -210 l 1
 285 710 l 1
 104 710 l 1
EndSplineSet
EndChar

StartChar: lbag
Encoding: 42 -1 41
Width: 444
Flags: MW
HStem: -250 40<304.5 372.5 304.5 372.5> 710 40<152.5 194>
VStem: 141 40<-102.5 49.5> 250 40<537.5 658.5>
LayerCount: 2
Fore
SplineSet
95 638 m 0
 95 627 85 619 74 619 c 0
 63 620 55 630 55 641 c 0
 60 702 111 750 173 750 c 0
 235 750 290 703 290 639 c 0
 290 436 181 151 181 -44 c 0
 181 -161 242 -210 367 -210 c 0
 378 -210 387 -219 387 -230 c 0
 387 -241 378 -250 367 -250 c 0
 193 -250 141 -171 141 -50 c 0
 141 149 250 392 250 639 c 0
 250 678 215 710 173 710 c 0
 132 710 98 678 95 638 c 0
EndSplineSet
EndChar

StartChar: rbag
Encoding: 43 -1 42
Width: 444
Flags: MW
HStem: -250 40<69.5 136.5 69.5 163> 710 40<248.5 290>
VStem: 153 40<535.5 658.5 516 671> 262 40
LayerCount: 2
Fore
SplineSet
387 641 m 1
 387 639 l 2
 387 629 379 620 368 619 c 0
 357 619 348 627 347 638 c 0
 344 678 310 710 270 710 c 0
 227 710 193 678 193 639 c 0
 193 393 302 150 302 -48 c 0
 302 -171 251 -250 75 -250 c 0
 64 -250 55 -241 55 -230 c 0
 55 -219 64 -210 75 -210 c 0
 198 -210 258 -166 262 -52 c 1
 258 143 153 432 153 639 c 0
 153 703 208 750 270 750 c 0
 332 750 383 702 387 641 c 1
EndSplineSet
EndChar

StartChar: varbigcirc
Encoding: 44 -1 43
Width: 1000
Flags: MW
HStem: -194 41<445.5 552.5 445.5 558> 653 41<445.5 552.5>
VStem: 55 41<196.5 303.5 196.5 309> 902 41<196.5 303.5>
LayerCount: 2
Fore
SplineSet
902 250 m 0
 902 357 860 460 785 535 c 0
 709 611 606 653 499 653 c 0
 392 653 289 611 214 536 c 0
 138 460 96 357 96 250 c 0
 96 143 138 40 213 -35 c 0
 289 -111 392 -153 499 -153 c 0
 606 -153 709 -111 784 -36 c 0
 860 40 902 143 902 250 c 0
185 564 m 1
 269 647 381 694 499 694 c 0
 617 694 729 647 812 564 c 0
 896 480 943 368 943 250 c 0
 943 132 896 20 813 -63 c 0
 729 -147 617 -194 499 -194 c 0
 381 -194 269 -147 186 -64 c 0
 102 20 55 132 55 250 c 0
 55 368 102 480 185 564 c 1
EndSplineSet
EndChar

StartChar: leftrightarroweq
Encoding: 45 -1 44
Width: 778
Flags: MW
HStem: 132 40<69.5 210 75 210 228 548 566 700> 328 40<125 650 125 650> 506 20G<215 223 223 226 553 561 561 563.5>
LayerCount: 2
Fore
SplineSet
571 519 m 0
 599 446 656 388 727 359 c 0
 730 358 732 355 733 353 c 0
 734 351 734 350 734 348 c 0
 734 347 734 345 733 344 c 0
 732 341 730 339 727 338 c 0
 656 308 599 250 571 178 c 0
 570 175 568 173 566 172 c 1
 700 172 l 2
 711 172 720 163 720 152 c 0
 720 141 711 132 700 132 c 2
 75 132 l 2
 64 132 55 141 55 152 c 0
 55 163 64 172 75 172 c 2
 210 172 l 1
 207 173 205 175 204 178 c 0
 177 250 120 308 48 338 c 0
 46 339 44 341 42 344 c 1
 41 348 l 1
 41 353 44 357 48 359 c 0
 120 388 177 446 204 519 c 0
 206 523 210 526 215 526 c 2
 223 526 l 2
 229 526 234 521 234 515 c 0
 234 514 234 512 233 511 c 0
 212 454 174 404 125 368 c 1
 650 368 l 1
 602 404 564 454 542 511 c 1
 542 515 l 2
 542 521 547 526 553 526 c 2
 561 526 l 2
 566 526 570 523 571 519 c 0
548 172 m 1
 544 173 542 177 542 182 c 2
 542 186 l 1
 564 243 602 292 650 328 c 1
 125 328 l 1
 174 292 212 243 233 186 c 0
 234 184 234 183 234 182 c 0
 234 178 232 174 228 172 c 1
 548 172 l 1
EndSplineSet
EndChar

StartChar: curlyveedownarrow
Encoding: 46 -1 45
Width: 667
Flags: MW
HStem: -208 21<330.5 333> 674 20G<17 22 643 648>
VStem: 311 42<-122 -122>
LayerCount: 2
Fore
SplineSet
510 -34 m 2
 510 -39 507 -43 502 -44 c 0
 430 -72 372 -129 343 -201 c 0
 342 -203 339 -206 337 -207 c 2
 333 -208 l 1
 328 -208 324 -205 322 -201 c 0
 293 -129 235 -72 162 -44 c 0
 158 -43 155 -39 155 -34 c 2
 155 -26 l 2
 155 -20 160 -15 166 -15 c 2
 170 -15 l 1
 227 -37 275 -74 311 -122 c 1
 302 180 236 480 8 659 c 0
 3 663 0 669 0 675 c 0
 0 679 1 683 4 687 c 0
 8 692 14 694 20 694 c 0
 24 694 29 693 32 690 c 0
 216 547 299 333 332 106 c 1
 366 333 449 547 632 690 c 0
 636 693 641 694 645 694 c 0
 651 694 657 692 660 687 c 0
 663 683 665 679 665 674 c 0
 665 668 662 662 657 659 c 0
 428 480 362 180 353 -122 c 1
 389 -74 438 -37 495 -15 c 1
 499 -15 l 2
 504 -15 510 -19 510 -26 c 2
 510 -34 l 2
EndSplineSet
EndChar

StartChar: curlyveeuparrow
Encoding: 47 -1 46
Width: 667
Flags: MW
HStem: -217 21<326.5 337.5> 655 29<77.5 90 75 115.5 549.5 574 574 587.5> 706 20G<240 242.5 422.5 425>
VStem: 39 29<524 549 520.5 562> 312 40<-202.5 -45.5> 597 29<525 552>
LayerCount: 2
Fore
SplineSet
0 686 m 0
 1 689 3 692 6 693 c 0
 7 694 8 695 10 695 c 2
 14 694 l 2
 39 687 65 684 90 684 c 0
 141 684 191 697 236 724 c 0
 238 725 239 726 241 726 c 0
 244 726 246 725 248 723 c 2
 255 718 l 2
 257 716 259 712 259 709 c 0
 259 707 259 705 257 703 c 2
 254 700 l 1
 204 670 147 655 90 655 c 2
 75 655 l 1
 229 513 301 315 332 106 c 1
 363 315 436 513 590 655 c 1
 574 655 l 2
 517 655 460 670 411 700 c 1
 408 703 l 2
 406 705 406 708 406 710 c 0
 406 713 407 716 410 718 c 2
 416 723 l 2
 418 725 421 726 424 726 c 0
 426 726 427 725 429 724 c 0
 474 697 524 684 575 684 c 0
 600 684 626 687 651 694 c 1
 654 695 l 2
 656 695 657 694 659 693 c 0
 662 692 663 689 664 686 c 2
 665 682 l 2
 665 680 664 679 663 678 c 0
 639 635 626 587 626 539 c 0
 626 511 631 483 639 456 c 1
 639 452 l 2
 639 448 638 446 635 444 c 2
 628 438 l 2
 626 437 624 436 622 436 c 0
 619 436 615 437 613 440 c 0
 612 441 611 443 611 444 c 0
 602 475 597 507 597 539 c 0
 597 565 600 590 606 615 c 1
 401 417 352 106 352 -197 c 0
 352 -208 343 -217 332 -217 c 0
 321 -217 312 -208 312 -197 c 0
 312 106 263 417 58 615 c 1
 64 589 68 562 68 536 c 0
 68 505 63 474 54 444 c 0
 52 439 48 436 43 436 c 0
 41 436 38 437 36 438 c 2
 30 444 l 2
 27 446 26 448 26 452 c 2
 26 456 l 1
 34 483 39 510 39 538 c 0
 39 586 26 635 1 678 c 0
 0 681 0 684 0 686 c 0
EndSplineSet
EndChar

StartChar: nnwarrow
Encoding: 48 -1 47
Width: 611
Flags: MW
HStem: -195 21<529.5 538> 579 29<386 387 387 395 395 397> 674 20G<175.5 178.5>
LayerCount: 2
Fore
SplineSet
169 691 m 0
 171 693 174 694 177 694 c 0
 180 694 183 693 185 691 c 0
 238 638 311 608 386 608 c 2
 395 608 l 2
 399 608 402 605 403 602 c 2
 407 594 l 1
 407 588 l 2
 407 583 402 579 397 579 c 2
 387 579 l 2
 329 579 272 595 224 624 c 1
 552 -167 l 2
 553 -170 554 -172 554 -175 c 0
 554 -186 543 -195 533 -195 c 0
 526 -195 519 -191 515 -182 c 2
 187 608 l 1
 172 550 141 496 97 454 c 0
 94 452 92 451 89 451 c 0
 86 451 83 452 81 454 c 0
 80 455 79 456 79 458 c 2
 76 465 l 2
 75 467 75 468 75 470 c 0
 75 473 76 475 78 478 c 0
 135 531 166 606 166 683 c 0
 166 686 167 689 169 691 c 0
EndSplineSet
EndChar

StartChar: nnearrow
Encoding: 49 -1 48
Width: 611
Flags: MW
HStem: -195 21<71 79.5> 579 29<209.5 223 214 222> 674 20G<430.5 435>
LayerCount: 2
Fore
SplineSet
216 608 m 1
 214 607 213 607 212 607 c 2
 211 607 l 1
 211 607 212 608 214 608 c 2
 223 608 l 2
 298 608 371 638 424 691 c 0
 426 693 429 694 432 694 c 0
 438 694 443 689 443 683 c 0
 443 606 475 531 531 478 c 0
 533 476 534 473 534 469 c 2
 534 465 l 1
 530 458 l 2
 530 456 529 455 528 454 c 0
 526 452 523 451 520 451 c 0
 517 451 514 452 512 454 c 0
 468 496 437 550 422 608 c 1
 94 -182 l 2
 90 -191 83 -195 76 -195 c 0
 66 -195 55 -186 55 -175 c 0
 55 -172 56 -170 57 -167 c 2
 385 624 l 1
 337 595 280 579 222 579 c 2
 212 579 l 2
 207 579 202 584 202 589 c 0
 202 591 202 592 203 594 c 2
 206 602 l 2
 207 605 210 608 214 608 c 2
 216 608 l 1
EndSplineSet
EndChar

StartChar: leftslice
Encoding: 50 -1 49
Width: 778
Flags: MW
HStem: 9 21<607.5 611.5> 471 20G<607.5 611.5>
VStem: 680 40<213.5 286.5>
LayerCount: 2
Fore
SplineSet
57 258 m 0
 59 263 63 267 68 269 c 2
 601 489 l 2
 604 490 606 491 609 491 c 0
 614 491 619 489 623 485 c 0
 685 423 720 338 720 250 c 0
 720 162 685 77 623 15 c 0
 619 11 614 9 609 9 c 0
 606 9 604 10 601 11 c 2
 68 231 l 2
 63 233 59 237 57 242 c 0
 56 244 55 247 55 250 c 0
 55 253 56 255 57 258 c 0
680 250 m 0
 680 323 653 393 604 447 c 1
 128 250 l 1
 604 53 l 1
 653 107 680 177 680 250 c 0
EndSplineSet
EndChar

StartChar: rightslice
Encoding: 51 -1 50
Width: 778
Flags: MW
HStem: 9 21<163.5 167.5> 471 20G<163.5 167.5>
VStem: 56 40<213.5 286.5 213.5 294>
LayerCount: 2
Fore
SplineSet
708 231 m 2
 175 11 l 2
 172 10 169 9 166 9 c 0
 161 9 156 11 153 15 c 0
 90 77 56 162 56 250 c 0
 56 338 90 423 153 485 c 0
 156 489 161 491 166 491 c 0
 169 491 172 490 175 489 c 2
 708 269 l 2
 713 267 717 263 719 258 c 0
 720 255 720 253 720 250 c 0
 720 247 720 244 719 242 c 0
 717 238 713 234 708 231 c 2
96 250 m 0
 96 177 123 107 172 53 c 1
 648 250 l 1
 172 447 l 1
 123 393 96 323 96 250 c 0
EndSplineSet
EndChar

StartChar: varolessthan
Encoding: 52 -1 51
Width: 778
Flags: MW
HStem: -82 40<349 421.5 349 432> 542 40<349 421.5>
VStem: 55 40 680 40<213.5 286.5>
LayerCount: 2
Fore
SplineSet
97 281 m 1
 572 477 l 1
 520 519 455 542 388 542 c 0
 310 542 236 512 181 457 c 0
 134 409 104 347 97 281 c 1
153 485 m 0
 215 547 300 582 388 582 c 0
 476 582 561 547 623 485 c 0
 685 423 720 338 720 250 c 0
 720 162 685 77 623 15 c 0
 561 -47 476 -82 388 -82 c 0
 300 -82 215 -47 153 15 c 0
 90 77 55 162 55 250 c 0
 55 338 90 423 153 485 c 0
604 53 m 1
 653 107 680 177 680 250 c 0
 680 323 653 393 604 447 c 1
 128 250 l 1
 604 53 l 1
181 43 m 0
 236 -12 310 -42 388 -42 c 0
 455 -42 520 -19 572 23 c 1
 97 219 l 1
 104 153 134 91 181 43 c 0
EndSplineSet
EndChar

StartChar: varogreaterthan
Encoding: 53 -1 52
Width: 778
Flags: MW
HStem: -82 40<354.5 426.5 354.5 432> 542 40<354.5 426.5>
VStem: 55 41<213.5 286.5 213.5 294> 679 40<219 219 281 281>
LayerCount: 2
Fore
SplineSet
679 281 m 1
 672 347 642 409 595 457 c 0
 540 512 465 542 388 542 c 0
 321 542 256 519 204 477 c 1
 679 281 l 1
153 485 m 0
 215 547 300 582 388 582 c 0
 476 582 561 547 623 485 c 0
 685 423 719 338 719 250 c 0
 719 162 685 77 623 15 c 0
 561 -47 476 -82 388 -82 c 0
 300 -82 215 -47 153 15 c 0
 90 77 55 162 55 250 c 0
 55 338 90 423 153 485 c 0
388 -42 m 0
 465 -42 540 -12 595 43 c 0
 642 91 672 153 679 219 c 1
 204 23 l 1
 256 -19 321 -42 388 -42 c 0
172 447 m 1
 123 393 96 323 96 250 c 0
 96 177 123 107 172 53 c 1
 648 250 l 1
 172 447 l 1
EndSplineSet
EndChar

StartChar: varovee
Encoding: 54 -1 53
Width: 778
Flags: MW
HStem: -82 40<357 357> 542 40<351.5 424.5>
VStem: 55 41<211 283.5 211 294> 680 40<211 283.5>
LayerCount: 2
Fore
SplineSet
388 -10 m 1
 585 466 l 1
 531 515 461 542 388 542 c 0
 315 542 245 515 191 466 c 1
 388 -10 l 1
153 485 m 0
 215 547 300 582 388 582 c 0
 476 582 561 547 623 485 c 0
 685 423 720 338 720 250 c 0
 720 162 685 77 623 15 c 0
 561 -47 476 -82 388 -82 c 0
 300 -82 215 -47 153 15 c 0
 90 77 55 162 55 250 c 0
 55 338 90 423 153 485 c 0
595 43 m 1
 649 98 680 172 680 250 c 0
 680 317 657 382 615 434 c 1
 419 -42 l 1
 485 -35 547 -4 595 43 c 1
96 250 m 0
 96 172 126 98 181 43 c 0
 229 -4 291 -35 357 -42 c 1
 161 434 l 1
 119 382 96 317 96 250 c 0
EndSplineSet
EndChar

StartChar: varowedge
Encoding: 55 -1 54
Width: 778
Flags: MW
HStem: -82 40<351.5 424.5 351.5 432> 542 40G
VStem: 55 41<216.5 289 216.5 294> 680 40<216.5 289>
LayerCount: 2
Fore
SplineSet
680 250 m 0
 680 328 649 402 595 456 c 0
 547 504 485 534 419 541 c 1
 615 66 l 1
 657 118 680 183 680 250 c 0
153 485 m 0
 215 547 300 582 388 582 c 0
 476 582 561 547 623 485 c 0
 685 423 720 338 720 250 c 0
 720 162 685 77 623 15 c 0
 561 -47 476 -82 388 -82 c 0
 300 -82 215 -47 153 15 c 0
 90 77 55 162 55 250 c 0
 55 338 90 423 153 485 c 0
191 34 m 1
 245 -15 315 -42 388 -42 c 0
 461 -42 531 -15 585 34 c 1
 388 510 l 1
 191 34 l 1
181 457 m 0
 126 402 96 328 96 250 c 0
 96 183 119 118 161 66 c 1
 357 541 l 1
 291 534 229 504 181 457 c 0
EndSplineSet
EndChar

StartChar: talloblong
Encoding: 56 -1 55
Width: 500
Flags: MW
HStem: -250 40<145.5 327 171 327 171 347> 710 40<171 327 171 171>
VStem: 131 40<-210 710 -210 730 -210 735.5> 327 40<-210 710 710 710>
LayerCount: 2
Fore
SplineSet
131 -230 m 2
 131 730 l 2
 131 741 140 750 151 750 c 2
 347 750 l 2
 358 750 367 741 367 730 c 2
 367 -230 l 2
 367 -241 358 -250 347 -250 c 2
 151 -250 l 2
 140 -250 131 -241 131 -230 c 2
327 710 m 1
 171 710 l 1
 171 -210 l 1
 327 -210 l 1
 327 710 l 1
EndSplineSet
EndChar

StartChar: interleave
Encoding: 57 -1 56
Width: 694
Flags: MW
HStem: -250 21<143.5 155 340.5 351.5 537.5 548.5> 730 20G<130 155 143.5 170>
VStem: 130 40<-230 730> 326 40<-230 730> 523 40<-230 730>
LayerCount: 2
Fore
SplineSet
130 730 m 2
 130 741 138 750 149 750 c 0
 161 750 170 741 170 730 c 2
 170 -230 l 2
 170 -241 161 -250 149 -250 c 0
 138 -250 130 -241 130 -230 c 2
 130 730 l 2
326 730 m 2
 326 741 335 750 346 750 c 0
 357 750 366 741 366 730 c 2
 366 -230 l 2
 366 -241 357 -250 346 -250 c 0
 335 -250 326 -241 326 -230 c 2
 326 730 l 2
523 730 m 2
 523 741 532 750 543 750 c 0
 554 750 563 741 563 730 c 2
 563 -230 l 2
 563 -241 554 -250 543 -250 c 0
 532 -250 523 -241 523 -230 c 2
 523 730 l 2
EndSplineSet
EndChar

StartChar: obar
Encoding: 58 629 57
Width: 778
Flags: MW
HStem: -83 25<375 375> 558 25<375 375 400 400>
VStem: 55 25<209 291 209 294> 375 25<-58 558 -58 558> 695 25<209 291>
LayerCount: 2
Fore
SplineSet
695 250 m 0
 695 332 663 410 605 468 c 0
 551 523 477 555 400 558 c 1
 400 -58 l 1
 477 -55 551 -23 605 32 c 0
 663 90 695 168 695 250 c 0
153 486 m 0
 215 548 300 583 388 583 c 0
 476 583 561 548 623 486 c 0
 685 423 720 338 720 250 c 0
 720 162 685 77 623 14 c 0
 561 -48 476 -83 388 -83 c 0
 300 -83 215 -48 153 14 c 0
 90 77 55 162 55 250 c 0
 55 338 90 423 153 486 c 0
80 250 m 0
 80 168 113 90 170 32 c 0
 225 -23 298 -55 375 -58 c 1
 375 558 l 1
 298 555 225 523 170 468 c 0
 113 410 80 332 80 250 c 0
EndSplineSet
EndChar

StartChar: obslash
Encoding: 59 -1 58
Width: 778
Flags: MW
HStem: -83 25<347 426.5 347 432> 558 25<349 428.5>
VStem: 55 25<209 289 209 294> 695 25<211 291>
LayerCount: 2
Fore
SplineSet
695 250 m 0
 695 332 663 410 605 468 c 0
 548 526 469 558 388 558 c 0
 310 558 236 529 179 477 c 1
 614 41 l 1
 666 98 695 172 695 250 c 0
153 486 m 0
 215 548 300 583 388 583 c 0
 476 583 561 548 623 486 c 0
 685 423 720 338 720 250 c 0
 720 162 685 77 623 14 c 0
 561 -48 476 -83 388 -83 c 0
 300 -83 215 -48 153 14 c 0
 90 77 55 162 55 250 c 0
 55 338 90 423 153 486 c 0
170 32 m 0
 228 -26 306 -58 388 -58 c 0
 465 -58 540 -29 596 23 c 1
 162 459 l 1
 110 402 80 328 80 250 c 0
 80 168 113 90 170 32 c 0
EndSplineSet
EndChar

StartChar: olessthan
Encoding: 60 -1 59
Width: 778
Flags: MW
HStem: -83 25<347 425.5 347 432> 558 25<347 425.5>
VStem: 55 26<231 231> 695 25<210.5 289.5>
LayerCount: 2
Fore
SplineSet
81 269 m 1
 592 481 l 1
 536 531 463 558 388 558 c 0
 306 558 228 526 170 468 c 0
 117 415 86 344 81 269 c 1
153 486 m 0
 215 548 300 583 388 583 c 0
 476 583 561 548 623 486 c 0
 685 423 720 338 720 250 c 0
 720 162 685 77 623 14 c 0
 561 -48 476 -83 388 -83 c 0
 300 -83 215 -48 153 14 c 0
 90 77 55 162 55 250 c 0
 55 338 90 423 153 486 c 0
611 38 m 1
 665 95 695 171 695 250 c 0
 695 329 665 405 611 462 c 1
 101 250 l 1
 611 38 l 1
170 32 m 0
 228 -26 306 -58 388 -58 c 0
 463 -58 536 -31 592 19 c 1
 81 231 l 1
 86 156 117 85 170 32 c 0
EndSplineSet
EndChar

StartChar: ogreaterthan
Encoding: 61 -1 60
Width: 778
Flags: MW
HStem: -83 25<350.5 428.5 350.5 432> 558 25<350.5 428.5>
VStem: 55 25<210.5 289.5 210.5 294> 695 25<231 231 269 269>
LayerCount: 2
Fore
SplineSet
695 269 m 1
 690 344 659 415 606 468 c 0
 548 526 469 558 388 558 c 0
 313 558 240 531 184 481 c 1
 695 269 l 1
153 486 m 0
 215 548 300 583 388 583 c 0
 476 583 561 548 623 486 c 0
 685 423 720 338 720 250 c 0
 720 162 685 77 623 14 c 0
 561 -48 476 -83 388 -83 c 0
 300 -83 215 -48 153 14 c 0
 90 77 55 162 55 250 c 0
 55 338 90 423 153 486 c 0
388 -58 m 0
 469 -58 548 -26 605 31 c 0
 659 85 690 156 695 231 c 1
 184 19 l 1
 240 -31 313 -58 388 -58 c 0
165 462 m 1
 111 405 80 329 80 250 c 0
 80 171 111 95 165 38 c 1
 675 250 l 1
 165 462 l 1
EndSplineSet
EndChar

StartChar: ovee
Encoding: 62 -1 61
Width: 778
Flags: MW
HStem: -83 25<369 369> 558 25<348.5 427.5>
VStem: 55 25<209 287.5 209 294> 695 25<209 287.5>
LayerCount: 2
Fore
SplineSet
388 -38 m 1
 599 474 l 1
 542 528 467 558 388 558 c 0
 309 558 233 528 176 474 c 1
 388 -38 l 1
153 486 m 0
 215 548 300 583 388 583 c 0
 476 583 561 548 623 486 c 0
 685 423 720 338 720 250 c 0
 720 162 685 77 623 14 c 0
 561 -48 476 -83 388 -83 c 0
 300 -83 215 -48 153 14 c 0
 90 77 55 162 55 250 c 0
 55 338 90 423 153 486 c 0
605 32 m 0
 663 90 695 168 695 250 c 0
 695 325 668 398 618 454 c 1
 407 -58 l 1
 481 -53 552 -21 605 32 c 0
80 250 m 0
 80 168 113 90 170 33 c 0
 224 -21 294 -53 369 -58 c 1
 157 454 l 1
 108 398 80 325 80 250 c 0
EndSplineSet
EndChar

StartChar: owedge
Encoding: 63 -1 62
Width: 778
Flags: MW
HStem: -83 25<348.5 427.5 348.5 432> 558 25<369 369 407 407>
VStem: 55 25<212.5 291 212.5 294> 695 25<212.5 291>
LayerCount: 2
Fore
SplineSet
695 250 m 0
 695 332 663 410 605 468 c 0
 552 521 481 553 407 558 c 1
 618 46 l 1
 668 102 695 175 695 250 c 0
153 486 m 0
 215 548 300 583 388 583 c 0
 476 583 561 548 623 486 c 0
 685 423 720 338 720 250 c 0
 720 162 685 77 623 14 c 0
 561 -48 476 -83 388 -83 c 0
 300 -83 215 -48 153 14 c 0
 90 77 55 162 55 250 c 0
 55 338 90 423 153 486 c 0
176 26 m 1
 233 -28 309 -58 388 -58 c 0
 467 -58 542 -28 599 26 c 1
 388 538 l 1
 176 26 l 1
170 468 m 1
 113 410 80 332 80 250 c 0
 80 175 108 102 157 46 c 1
 369 558 l 1
 294 553 224 521 170 468 c 1
EndSplineSet
EndChar

StartChar: oblong
Encoding: 64 -1 63
Width: 667
Flags: MW
HStem: 0 40<75.5 564 101 564 101 584> 558 40<101 564 101 101>
VStem: 61 40<40 558 40 578 40 583.5> 564 40<40 558 558 558>
LayerCount: 2
Fore
SplineSet
61 20 m 2
 61 578 l 2
 61 589 70 598 81 598 c 2
 584 598 l 2
 595 598 604 589 604 578 c 2
 604 20 l 2
 604 9 595 0 584 0 c 2
 81 0 l 2
 70 0 61 9 61 20 c 2
564 558 m 1
 101 558 l 1
 101 40 l 1
 564 40 l 1
 564 558 l 1
EndSplineSet
EndChar

StartChar: inplus
Encoding: 65 -1 64
Width: 667
Flags: MW
HStem: -41 40<305.5 561 388 561> 230 40<124 326 124 326 366 561> 501 40<319 561 388 561>
VStem: 84 40<230 230> 326 40<99 230 270 401>
LayerCount: 2
Fore
SplineSet
561 541 m 2
 573 541 582 532 582 521 c 0
 582 510 573 501 561 501 c 2
 388 501 l 2
 250 501 135 401 124 270 c 1
 326 270 l 1
 326 401 l 2
 326 412 335 421 346 421 c 0
 357 421 366 412 366 401 c 2
 366 270 l 1
 561 270 l 2
 573 270 582 261 582 250 c 0
 582 239 573 230 561 230 c 2
 366 230 l 1
 366 99 l 2
 366 88 357 79 346 79 c 0
 335 79 326 88 326 99 c 2
 326 230 l 1
 124 230 l 1
 135 99 250 -1 388 -1 c 2
 561 -1 l 2
 573 -1 582 -10 582 -21 c 0
 582 -32 573 -41 561 -41 c 2
 388 -41 l 2
 223 -41 84 86 84 250 c 0
 84 414 223 541 388 541 c 2
 561 541 l 2
EndSplineSet
EndChar

StartChar: niplus
Encoding: 66 -1 65
Width: 667
Flags: MW
HStem: -41 40<97.5 277 103 277> 230 40<97.5 299 103 299 339 541> 501 40<97.5 277 103 277>
VStem: 299 40<99 230 270 401> 541 40<230 230 270 270>
LayerCount: 2
Fore
SplineSet
103 501 m 2
 92 501 83 510 83 521 c 0
 83 532 92 541 103 541 c 2
 277 541 l 2
 442 541 581 414 581 250 c 0
 581 86 442 -41 277 -41 c 2
 103 -41 l 2
 92 -41 83 -32 83 -21 c 0
 83 -10 92 -1 103 -1 c 2
 277 -1 l 2
 415 -1 530 99 541 230 c 1
 339 230 l 1
 339 99 l 2
 339 88 330 79 319 79 c 0
 307 79 299 88 299 99 c 2
 299 230 l 1
 103 230 l 2
 92 230 83 239 83 250 c 0
 83 261 92 270 103 270 c 2
 299 270 l 1
 299 401 l 2
 299 412 307 421 319 421 c 0
 330 421 339 412 339 401 c 2
 339 270 l 1
 541 270 l 1
 530 401 415 501 277 501 c 2
 103 501 l 2
EndSplineSet
EndChar

StartChar: nplus
Encoding: 67 -1 66
Width: 667
Flags: MW
HStem: -22 21<69.5 81 583.5 594.5> 251 40<150.5 312 156 312 352 509> 558 40<269 395>
VStem: 55 40<-2 384> 312 40<94 251 291 447> 569 40<-2 384>
LayerCount: 2
Fore
SplineSet
95 -2 m 2
 95 -13 87 -22 75 -22 c 0
 64 -22 55 -13 55 -2 c 2
 55 384 l 2
 55 521 195 598 332 598 c 0
 469 598 609 521 609 384 c 2
 609 -2 l 2
 609 -13 600 -22 589 -22 c 0
 578 -22 569 -13 569 -2 c 2
 569 384 l 2
 569 489 458 558 332 558 c 0
 206 558 95 489 95 384 c 2
 95 -2 l 2
352 94 m 2
 352 83 343 74 332 74 c 0
 321 74 312 83 312 94 c 2
 312 251 l 1
 156 251 l 2
 145 251 136 259 136 270 c 0
 136 282 145 291 156 291 c 2
 312 291 l 1
 312 447 l 2
 312 458 321 467 332 467 c 0
 343 467 352 458 352 447 c 2
 352 291 l 1
 509 291 l 2
 520 291 529 282 529 270 c 0
 529 259 520 251 509 251 c 2
 352 251 l 1
 352 94 l 2
EndSplineSet
EndChar

StartChar: subsetplus
Encoding: 68 10943 67
Width: 778
Flags: MW
HStem: -41 40<305.5 673 388 673> 230 40<288.5 425 294 425 465 595> 501 40<315.5 673 388 673>
VStem: 83 40<180 320 180 332> 425 40<99 230 270 401>
LayerCount: 2
Fore
SplineSet
673 541 m 2
 684 541 693 532 693 521 c 0
 693 510 684 501 673 501 c 2
 388 501 l 2
 243 501 123 390 123 250 c 0
 123 110 243 -1 388 -1 c 2
 673 -1 l 2
 684 -1 693 -10 693 -21 c 0
 693 -32 684 -41 673 -41 c 2
 388 -41 l 2
 223 -41 83 86 83 250 c 0
 83 414 223 541 388 541 c 2
 673 541 l 2
425 401 m 2
 425 412 434 421 445 421 c 0
 456 421 465 412 465 401 c 2
 465 270 l 1
 595 270 l 2
 607 270 616 261 616 250 c 0
 616 239 607 230 595 230 c 2
 465 230 l 1
 465 99 l 2
 465 88 456 79 445 79 c 0
 434 79 425 88 425 99 c 2
 425 230 l 1
 294 230 l 2
 283 230 274 239 274 250 c 0
 274 261 283 270 294 270 c 2
 425 270 l 1
 425 401 l 2
EndSplineSet
EndChar

StartChar: supsetplus
Encoding: 69 10944 68
Width: 778
Flags: MW
HStem: -41 40<97.5 388 103 388> 230 40<174.5 311 180 311 351 482> 501 40<97.5 388 103 388>
VStem: 311 40<99 230 270 401> 652 40<180 320>
LayerCount: 2
Fore
SplineSet
103 501 m 2
 92 501 83 510 83 521 c 0
 83 532 92 541 103 541 c 2
 388 541 l 2
 553 541 692 414 692 250 c 0
 692 86 553 -41 388 -41 c 2
 103 -41 l 2
 92 -41 83 -32 83 -21 c 0
 83 -10 92 -1 103 -1 c 2
 388 -1 l 2
 533 -1 652 110 652 250 c 0
 652 390 533 501 388 501 c 2
 103 501 l 2
311 401 m 2
 311 412 320 421 331 421 c 0
 342 421 351 412 351 401 c 2
 351 270 l 1
 482 270 l 2
 493 270 502 261 502 250 c 0
 502 239 493 230 482 230 c 2
 351 230 l 1
 351 99 l 2
 351 88 342 79 331 79 c 0
 320 79 311 88 311 99 c 2
 311 230 l 1
 180 230 l 2
 169 230 160 239 160 250 c 0
 160 261 169 270 180 270 c 2
 311 270 l 1
 311 401 l 2
EndSplineSet
EndChar

StartChar: subsetpluseq
Encoding: 70 -1 69
Width: 778
Flags: MW
HStem: -143 40<117.5 673 123 673> 54 40<305.5 673 388 673> 325 40<288.5 425 294 425 465 595> 596 40<315.5 673 388 673>
VStem: 83 40<275 415> 425 40<194 325 365 495>
LayerCount: 2
Fore
SplineSet
673 636 m 2
 684 636 693 627 693 616 c 0
 693 605 684 596 673 596 c 2
 388 596 l 2
 243 596 123 485 123 345 c 0
 123 205 243 94 388 94 c 2
 673 94 l 2
 684 94 693 85 693 74 c 0
 693 63 684 54 673 54 c 2
 388 54 l 2
 223 54 83 181 83 345 c 0
 83 509 223 636 388 636 c 2
 673 636 l 2
673 -103 m 2
 684 -103 693 -112 693 -123 c 0
 693 -134 684 -143 673 -143 c 2
 123 -143 l 2
 112 -143 103 -134 103 -123 c 0
 103 -112 112 -103 123 -103 c 2
 673 -103 l 2
425 495 m 2
 425 507 434 515 445 515 c 0
 456 515 465 507 465 495 c 2
 465 365 l 1
 595 365 l 2
 607 365 616 356 616 345 c 0
 616 334 607 325 595 325 c 2
 465 325 l 1
 465 194 l 2
 465 183 456 174 445 174 c 0
 434 174 425 183 425 194 c 2
 425 325 l 1
 294 325 l 2
 283 325 274 334 274 345 c 0
 274 356 283 365 294 365 c 2
 425 365 l 1
 425 495 l 2
EndSplineSet
EndChar

StartChar: supsetpluseq
Encoding: 71 -1 70
Width: 778
Flags: MW
HStem: -143 40<97.5 652 103 652> 54 40<97.5 388 103 388> 325 40<174.5 311 180 311 351 482> 596 40<97.5 388 103 388>
VStem: 311 40G<194 325 365 495> 652 40G<275 415>
LayerCount: 2
Fore
SplineSet
103 596 m 2
 92 596 83 605 83 616 c 0
 83 627 92 636 103 636 c 2
 388 636 l 2
 553 636 692 509 692 345 c 0
 692 181 553 54 388 54 c 2
 103 54 l 2
 92 54 83 63 83 74 c 0
 83 85 92 94 103 94 c 2
 388 94 l 2
 533 94 652 205 652 345 c 0
 652 485 533 596 388 596 c 2
 103 596 l 2
103 -143 m 2
 92 -143 83 -134 83 -123 c 0
 83 -112 92 -103 103 -103 c 2
 652 -103 l 2
 664 -103 673 -112 673 -123 c 0
 673 -134 664 -143 652 -143 c 2
 103 -143 l 2
311 495 m 2
 311 507 320 515 331 515 c 0
 342 515 351 507 351 495 c 2
 351 365 l 1
 482 365 l 2
 493 365 502 356 502 345 c 0
 502 334 493 325 482 325 c 2
 351 325 l 1
 351 194 l 2
 351 183 342 174 331 174 c 0
 320 174 311 183 311 194 c 2
 311 325 l 1
 180 325 l 2
 169 325 160 334 160 345 c 0
 160 356 169 365 180 365 c 2
 311 365 l 1
 311 495 l 2
EndSplineSet
EndChar

StartChar: Lbag
Encoding: 72 -1 71
Width: 444
Flags: W
HStem: -250 22<312 380 312 380> 728 22<154 196>
VStem: 55 84<-63.5 109.5 -63.5 116.5> 262 25<527.5 663.5>
LayerCount: 2
Fore
SplineSet
55 0 m 0
 55 233 262 413 262 639 c 0
 262 688 221 728 171 728 c 0
 137 728 108 710 92 683 c 1
 100 684 l 1
 122 684 144 669 144 639 c 0xf0
 144 609 121 595 99 595 c 0
 77 595 55 609 55 639 c 0
 55 702 108 750 171 750 c 0
 234 750 287 702 287 639 c 0
 287 416 139 219 139 0 c 0
 139 -127 247 -228 377 -228 c 0
 383 -228 387 -232 387 -237 c 2
 387 -240 l 2
 387 -246 383 -250 377 -250 c 0
 214 -250 55 -155 55 0 c 0
EndSplineSet
EndChar

StartChar: Rbag
Encoding: 73 -1 72
Width: 444
Flags: W
HStem: -250 22<62.5 130 62.5 147> 728 22<246.5 288>
VStem: 156 25<527.5 663.5 526 670.5> 298 89<624 654> 304 83<-63.5 109.5>
LayerCount: 2
Fore
SplineSet
350 683 m 1xf0
 335 710 305 728 271 728 c 0
 222 728 181 688 181 639 c 0
 181 413 387 233 387 0 c 0
 387 -155 229 -250 65 -250 c 0
 60 -250 55 -246 55 -240 c 0
 55 -232 60 -228 65 -228 c 0
 195 -228 304 -127 304 0 c 0xe8
 304 219 156 416 156 639 c 0
 156 702 209 750 271 750 c 0
 334 750 387 702 387 639 c 0
 387 609 364 595 342 595 c 0
 320 595 298 609 298 639 c 0
 298 669 320 684 342 684 c 1
 350 683 l 1xf0
EndSplineSet
EndChar

StartChar: llbracket
Encoding: 74 -1 73
Width: 403
Flags: MW
HStem: -250 40<124 240 156 240 280 368> 710 40<156 240 156 156 280 368 280 280>
VStem: 116 40<-210 710 -210 739 -210 742> 240 40<-210 710 -210 710>
LayerCount: 2
Fore
SplineSet
116 -239 m 2
 116 739 l 2
 116 745 121 750 127 750 c 2
 368 750 l 2
 375 750 380 745 380 739 c 2
 380 721 l 2
 380 715 375 710 368 710 c 2
 280 710 l 1
 280 -210 l 1
 368 -210 l 2
 375 -210 380 -215 380 -221 c 2
 380 -239 l 2
 380 -245 375 -250 368 -250 c 2
 127 -250 l 2
 121 -250 116 -245 116 -239 c 2
240 710 m 1
 156 710 l 1
 156 -210 l 1
 240 -210 l 1
 240 710 l 1
EndSplineSet
EndChar

StartChar: rrbracket
Encoding: 75 -1 74
Width: 403
Flags: MW
HStem: -250 40<32 120 35 120 160 245> 710 40<32 274 35 120 160 245 160 160>
VStem: 120 40<-210 710> 245 40<-210 710 710 710>
LayerCount: 2
Fore
SplineSet
160 -210 m 1
 245 -210 l 1
 245 710 l 1
 160 710 l 1
 160 -210 l 1
285 -239 m 2
 285 -245 280 -250 274 -250 c 2
 35 -250 l 2
 29 -250 24 -245 24 -239 c 2
 24 -221 l 2
 24 -215 29 -210 35 -210 c 2
 120 -210 l 1
 120 710 l 1
 35 710 l 2
 29 710 24 715 24 721 c 2
 24 739 l 2
 24 745 29 750 35 750 c 2
 274 750 l 2
 280 750 285 745 285 739 c 2
 285 -239 l 2
EndSplineSet
EndChar

StartChar: llparenthesis
Encoding: 76 -1 75
Width: 389
Flags: MW
HStem: -250 21<320.5 323> 730 20G<318 321>
VStem: 99 57<169 331 169 345> 291 40<-194 694 694 694>
LayerCount: 2
Fore
SplineSet
313 -248 m 0
 163 -131 99 60 99 250 c 0
 99 440 163 631 313 748 c 0
 315 749 317 750 319 750 c 0
 323 750 326 750 329 747 c 0
 331 745 331 743 331 740 c 2
 331 -240 l 2
 331 -243 331 -245 329 -247 c 0
 327 -249 324 -250 322 -250 c 0
 319 -250 316 -250 313 -248 c 0
291 694 m 1
 190 575 156 412 156 250 c 0
 156 88 190 -75 291 -194 c 1
 291 694 l 1
EndSplineSet
EndChar

StartChar: rrparenthesis
Encoding: 77 -1 76
Width: 389
Flags: MW
HStem: -250 21<63.5 66.5> 730 20G<63.5 66.5>
VStem: 55 40<-194 -194 -194 694> 231 56<169 331>
LayerCount: 2
Fore
SplineSet
95 -194 m 1
 197 -75 231 88 231 250 c 0
 231 412 197 575 95 694 c 1
 95 -194 l 1
74 -248 m 0
 71 -250 68 -250 65 -250 c 0
 62 -250 60 -249 58 -247 c 0
 56 -245 55 -243 55 -240 c 2
 55 740 l 2
 55 743 56 745 58 747 c 0
 60 749 62 750 65 750 c 0
 68 750 71 750 74 748 c 0
 224 631 287 440 287 250 c 0
 287 60 224 -131 74 -248 c 0
EndSplineSet
EndChar

StartChar: binampersand
Encoding: 78 -1 77
Width: 778
Flags: MW
HStem: -82 40<194.5 289.5 194.5 295.5> 542 40<342.5 414.5>
VStem: 56 40<44.5 126 44.5 137> 203 40<420 470 420 481.5> 481 40<419 472>
LayerCount: 2
Fore
SplineSet
682 258 m 0
 685 266 693 270 701 270 c 0
 703 270 706 270 708 269 c 0
 716 265 720 258 720 250 c 0
 720 247 720 245 719 242 c 0
 691 176 651 117 602 69 c 1
 713 -25 l 2
 718 -29 721 -35 721 -41 c 0
 721 -45 719 -50 716 -53 c 0
 712 -58 706 -61 700 -61 c 0
 695 -61 691 -59 687 -56 c 2
 572 42 l 1
 478 -37 359 -82 232 -82 c 0
 139 -82 56 -15 56 78 c 0
 56 196 166 260 277 292 c 1
 226 343 203 396 203 442 c 0
 203 521 271 582 388 582 c 0
 470 582 521 520 521 450 c 0
 521 383 474 308 360 271 c 1
 571 95 l 1
 618 140 656 195 682 258 c 0
96 78 m 0
 96 11 157 -42 232 -42 c 0
 347 -42 455 -2 540 68 c 1
 313 259 l 1
 196 232 96 174 96 78 c 0
388 542 m 0
 297 542 243 500 243 440 c 0
 243 400 267 351 322 303 c 1
 438 331 481 392 481 446 c 0
 481 498 441 542 388 542 c 0
EndSplineSet
EndChar

StartChar: bindnasrepma
Encoding: 79 -1 78
Width: 778
Flags: MW
HStem: -82 40<361 433 361 446> 542 40<486.5 581.5>
VStem: 254 40<28 80.5 28 82.5> 533 40<29.5 79> 680 40<373.5 455.5>
LayerCount: 2
Fore
SplineSet
94 242 m 0
 91 234 83 230 75 230 c 0
 73 230 70 230 68 231 c 0
 60 235 56 242 56 250 c 0
 56 253 56 255 57 258 c 0
 85 324 125 383 174 431 c 1
 63 525 l 2
 58 529 55 535 55 541 c 0
 55 545 57 549 60 553 c 0
 64 558 70 561 76 561 c 0
 80 561 84 559 88 556 c 2
 204 458 l 1
 297 537 417 582 544 582 c 0
 637 582 720 515 720 422 c 0
 720 304 609 239 499 208 c 1
 549 157 573 104 573 58 c 0
 573 -21 504 -82 388 -82 c 0
 305 -82 254 -21 254 49 c 0
 254 116 301 191 415 228 c 1
 205 405 l 1
 158 360 120 305 94 242 c 0
680 422 m 0
 680 489 619 542 544 542 c 0
 429 542 321 502 235 432 c 1
 462 241 l 1
 580 268 680 325 680 422 c 0
388 -42 m 0
 478 -42 533 0 533 59 c 0
 533 99 508 147 453 196 c 1
 337 168 294 107 294 54 c 0
 294 2 334 -42 388 -42 c 0
EndSplineSet
EndChar

StartChar: trianglelefteqslant
Encoding: 80 -1 79
Width: 778
Flags: MW
HStem: -143 21<671.5 676.5> 616 20G<671.5 693>
VStem: 653 40<106 584 584 584>
LayerCount: 2
Fore
SplineSet
673 636 m 0
 680 636 687 632 691 625 c 0
 692 622 693 619 693 616 c 2
 693 74 l 2
 693 71 692 68 691 65 c 0
 687 58 680 54 673 54 c 0
 669 54 667 54 664 56 c 2
 95 327 l 2
 91 329 87 332 85 336 c 0
 84 339 83 342 83 345 c 0
 83 348 84 351 85 353 c 0
 87 358 91 361 95 363 c 2
 664 634 l 2
 667 635 670 636 673 636 c 0
653 106 m 1
 653 584 l 1
 150 345 l 1
 653 106 l 1
681 -105 m 2
 688 -109 693 -116 693 -124 c 0
 693 -127 692 -129 691 -132 c 0
 687 -139 680 -143 673 -143 c 0
 670 -143 667 -142 664 -141 c 2
 95 130 l 2
 88 134 83 141 83 149 c 0
 83 152 84 154 85 157 c 0
 89 164 96 168 103 168 c 0
 106 168 109 167 112 166 c 2
 681 -105 l 2
EndSplineSet
EndChar

StartChar: trianglerighteqslant
Encoding: 81 -1 80
Width: 778
Flags: MW
HStem: -143 21<99.5 104.5> 616 20G<83 104.5>
VStem: 83 40<106 106 106 584>
LayerCount: 2
Fore
SplineSet
83 616 m 2
 83 627 92 636 103 636 c 0
 106 636 109 635 112 634 c 2
 681 363 l 2
 686 361 689 357 691 353 c 0
 692 350 693 348 693 345 c 0
 693 337 688 330 681 327 c 2
 112 56 l 2
 109 54 106 54 103 54 c 0
 96 54 89 58 85 65 c 0
 84 68 83 71 83 74 c 2
 83 616 l 2
123 106 m 1
 626 345 l 1
 123 584 l 1
 123 106 l 1
691 336 m 2
 692 343 l 2
 692 342 692 339 691 336 c 2
112 -141 m 2
 109 -142 106 -143 103 -143 c 0
 96 -143 89 -139 85 -132 c 0
 84 -129 83 -127 83 -124 c 0
 83 -116 88 -109 95 -105 c 2
 664 166 l 2
 667 167 670 168 673 168 c 0
 680 168 687 164 691 157 c 0
 692 154 693 152 693 149 c 0
 693 141 688 134 681 130 c 2
 112 -141 l 2
EndSplineSet
EndChar

StartChar: ntrianglelefteqslant
Encoding: 82 -1 81
Width: 778
Flags: MW
HStem: -303 21<165.5 171> 783 20G<605 610.5>
VStem: 653 40<106 585 585 585>
LayerCount: 2
Fore
SplineSet
546 578 m 1
 664 634 l 2
 667 636 670 636 673 636 c 0
 684 636 693 627 693 616 c 2
 693 74 l 2
 693 63 684 54 673 54 c 0
 669 54 667 55 664 56 c 2
 384 189 l 1
 331 62 l 1
 681 -104 l 2
 688 -108 693 -115 693 -123 c 0
 693 -126 692 -128 691 -131 c 0
 687 -138 680 -143 672 -143 c 0
 669 -143 667 -142 664 -141 c 2
 316 25 l 1
 185 -290 l 2
 182 -298 175 -303 167 -303 c 0
 164 -303 162 -302 159 -301 c 0
 151 -298 146 -291 146 -283 c 0
 146 -280 147 -278 148 -275 c 2
 280 42 l 1
 95 130 l 2
 88 134 83 141 83 149 c 0
 83 152 84 154 85 157 c 0
 89 164 96 169 104 169 c 0
 107 169 109 168 112 167 c 2
 295 79 l 1
 348 206 l 1
 95 327 l 2
 90 329 87 333 85 337 c 0
 84 339 83 342 83 345 c 0
 83 348 84 351 85 354 c 0
 87 358 91 361 95 363 c 2
 492 553 l 1
 591 790 l 2
 594 798 601 803 609 803 c 0
 612 803 614 802 617 801 c 0
 625 798 629 790 629 782 c 0
 629 780 629 777 628 775 c 2
 546 578 l 1
363 244 m 1
 469 497 l 1
 150 345 l 1
 363 244 l 1
653 106 m 1
 653 585 l 1
 523 523 l 1
 400 226 l 1
 653 106 l 1
EndSplineSet
EndChar

StartChar: ntrianglerighteqslant
Encoding: 83 -1 82
Width: 778
Flags: MW
HStem: -303 21<165.5 171> 783 20G<605 610.5>
VStem: 83 40<106 585 106 616 106 617.5>
LayerCount: 2
Fore
SplineSet
85 625 m 0
 89 632 96 636 103 636 c 0
 106 636 109 636 112 634 c 2
 458 470 l 1
 591 790 l 2
 594 798 601 803 609 803 c 0
 612 803 614 802 617 801 c 0
 625 798 629 790 629 782 c 0
 629 780 629 777 628 775 c 2
 494 453 l 1
 681 363 l 2
 688 360 693 353 693 345 c 0
 693 342 692 340 691 337 c 0
 689 332 685 329 681 327 c 2
 383 185 l 1
 304 -5 l 1
 664 167 l 2
 667 168 669 169 672 169 c 0
 680 169 687 164 691 157 c 0
 692 154 693 152 693 149 c 0
 693 141 688 134 681 130 c 2
 280 -60 l 1
 185 -290 l 2
 182 -298 175 -303 167 -303 c 0
 164 -303 162 -302 159 -301 c 0
 151 -298 146 -291 146 -283 c 0
 146 -280 147 -278 148 -275 c 2
 226 -86 l 1
 112 -141 l 2
 109 -142 107 -143 104 -143 c 0
 96 -143 89 -138 85 -131 c 0
 84 -128 83 -126 83 -123 c 0
 83 -115 88 -108 95 -104 c 2
 249 -31 l 1
 328 159 l 1
 112 56 l 2
 109 55 106 54 103 54 c 0
 95 54 88 59 85 66 c 0
 84 68 83 71 83 74 c 2
 83 616 l 2
 83 619 84 622 85 625 c 0
351 215 m 1
 442 433 l 1
 123 585 l 1
 123 106 l 1
 351 215 l 1
406 240 m 1
 626 345 l 1
 478 415 l 1
 406 240 l 1
EndSplineSet
EndChar

StartChar: llfloor
Encoding: 84 -1 83
Width: 556
Flags: MW
HStem: -250 40<134.5 317 160 317 357 533> 730 20G<120 145.5 134.5 160>
VStem: 120 40<-210 730 -210 730 -210 735.5> 317 40<-210 730 -210 735.5>
LayerCount: 2
Fore
SplineSet
120 730 m 2
 120 741 129 750 140 750 c 0
 151 750 160 741 160 730 c 2
 160 -210 l 1
 317 -210 l 1
 317 730 l 2
 317 741 326 750 337 750 c 0
 348 750 357 741 357 730 c 2
 357 -210 l 1
 533 -210 l 2
 545 -210 554 -219 554 -230 c 0
 554 -241 545 -250 533 -250 c 2
 140 -250 l 2
 129 -250 120 -241 120 -230 c 2
 120 730 l 2
EndSplineSet
EndChar

StartChar: rrfloor
Encoding: 85 -1 84
Width: 556
Flags: MW
HStem: -250 40<14.5 197 20 197 237 394> 730 20G<197 222.5 211.5 237>
VStem: 197 40<-210 730 -210 735.5> 394 40<-210 730>
LayerCount: 2
Fore
SplineSet
197 730 m 2
 197 741 206 750 217 750 c 0
 228 750 237 741 237 730 c 2
 237 -210 l 1
 394 -210 l 1
 394 730 l 2
 394 741 403 750 414 750 c 0
 425 750 434 741 434 730 c 2
 434 -230 l 2
 434 -241 425 -250 414 -250 c 2
 20 -250 l 2
 9 -250 0 -241 0 -230 c 0
 0 -219 9 -210 20 -210 c 2
 197 -210 l 1
 197 730 l 2
EndSplineSet
EndChar

StartChar: llceil
Encoding: 86 -1 85
Width: 556
Flags: MW
HStem: -250 21<134.5 145.5 331.5 342.5> 710 40<160 317 160 160 357 533 357 357>
VStem: 120 40<-230 710> 317 40<-230 710>
LayerCount: 2
Fore
SplineSet
160 -230 m 2
 160 -241 151 -250 140 -250 c 0
 129 -250 120 -241 120 -230 c 2
 120 730 l 2
 120 741 129 750 140 750 c 2
 533 750 l 2
 545 750 554 741 554 730 c 0
 554 719 545 710 533 710 c 2
 357 710 l 1
 357 -230 l 2
 357 -241 348 -250 337 -250 c 0
 326 -250 317 -241 317 -230 c 2
 317 710 l 1
 160 710 l 1
 160 -230 l 2
EndSplineSet
EndChar

StartChar: rrceil
Encoding: 87 -1 86
Width: 556
Flags: MW
HStem: -250 21<211.5 222.5 408.5 419.5> 710 40<14.5 414 20 197 237 237 237 394>
VStem: 197 40<-230 710> 394 40<-230 710 710 710>
LayerCount: 2
Fore
SplineSet
237 -230 m 2
 237 -241 228 -250 217 -250 c 0
 206 -250 197 -241 197 -230 c 2
 197 710 l 1
 20 710 l 2
 9 710 0 719 0 730 c 0
 0 741 9 750 20 750 c 2
 414 750 l 2
 425 750 434 741 434 730 c 2
 434 -230 l 2
 434 -241 425 -250 414 -250 c 0
 403 -250 394 -241 394 -230 c 2
 394 710 l 1
 237 710 l 1
 237 -230 l 2
EndSplineSet
EndChar

StartChar: arrownot
Encoding: 88 -1 87
Width: 0
Flags: MW
HStem: 63 21<386 391> 417 20G<607 612>
LayerCount: 2
Fore
SplineSet
593 428 m 2
 597 434 604 437 610 437 c 0
 614 437 618 436 621 433 c 0
 627 429 630 422 630 416 c 0
 630 412 629 409 627 406 c 2
 405 72 l 2
 401 66 394 63 388 63 c 0
 384 63 380 64 377 67 c 0
 371 71 368 78 368 84 c 0
 368 88 369 91 371 94 c 2
 593 428 l 2
EndSplineSet
EndChar

StartChar: Arrownot
Encoding: 89 -1 88
Width: 0
Flags: MW
HStem: -35 21<415 420> 515 20G<578 583>
LayerCount: 2
Fore
SplineSet
563 521 m 2
 565 530 574 535 582 535 c 0
 584 535 586 535 588 534 c 0
 597 532 602 524 602 516 c 0
 602 514 602 511 601 509 c 2
 435 -21 l 2
 433 -30 424 -35 416 -35 c 0
 414 -35 412 -35 410 -34 c 0
 401 -32 396 -24 396 -16 c 0
 396 -14 396 -11 397 -9 c 2
 563 521 l 2
EndSplineSet
EndChar

StartChar: Mapstochar
Encoding: 90 -1 89
Width: 0
Flags: MW
HStem: -35 21<69.5 81> 515 20G<56 81 69.5 96>
VStem: 56 40<-15 132 172 328 368 515>
LayerCount: 2
Fore
SplineSet
96 -15 m 2
 96 -26 87 -35 75 -35 c 0
 64 -35 56 -26 56 -15 c 2
 56 515 l 2
 56 526 64 535 75 535 c 0
 87 535 96 526 96 515 c 2
 96 368 l 1
 103 368 l 2
 114 368 123 359 123 348 c 0
 123 337 114 328 103 328 c 2
 96 328 l 1
 96 172 l 1
 103 172 l 2
 114 172 123 163 123 152 c 0
 123 141 114 132 103 132 c 2
 96 132 l 1
 96 -15 l 2
EndSplineSet
EndChar

StartChar: mapsfromchar
Encoding: 91 -1 90
Width: 0
Flags: MW
HStem: 63 21<-81 -69.5> 417 20G<-95 -69.5 -81 -55>
VStem: -95 40<83 230 230 230 270 417>
LayerCount: 2
Fore
SplineSet
-55 83 m 2
 -55 72 -64 63 -75 63 c 0
 -87 63 -95 72 -95 83 c 2
 -95 230 l 1
 -103 230 l 2
 -114 230 -123 239 -123 250 c 0
 -123 261 -114 270 -103 270 c 2
 -95 270 l 1
 -95 417 l 2
 -95 428 -87 437 -75 437 c 0
 -64 437 -55 428 -55 417 c 2
 -55 83 l 2
EndSplineSet
EndChar

StartChar: Mapsfromchar
Encoding: 92 -1 91
Width: 0
Flags: MW
HStem: -35 21<-81 -69.5> 515 20G<-95 -69.5 -81 -55>
VStem: -95 40<-15 132 132 132 172 328 328 328 368 515>
LayerCount: 2
Fore
SplineSet
-55 -15 m 2
 -55 -26 -64 -35 -75 -35 c 0
 -87 -35 -95 -26 -95 -15 c 2
 -95 132 l 1
 -103 132 l 2
 -114 132 -123 141 -123 152 c 0
 -123 163 -114 172 -103 172 c 2
 -95 172 l 1
 -95 328 l 1
 -103 328 l 2
 -114 328 -123 337 -123 348 c 0
 -123 359 -114 368 -103 368 c 2
 -95 368 l 1
 -95 515 l 2
 -95 526 -87 535 -75 535 c 0
 -64 535 -55 526 -55 515 c 2
 -55 -15 l 2
EndSplineSet
EndChar

StartChar: leftrightarrowtriangle
Encoding: 93 -1 92
Width: 1000
Flags: MW
HStem: 83 21<328 335.5 662.5 670> 230 40<350 648 350 648> 397 20G<328 350>
VStem: 310 40<138 230 270 362 362 362> 648 40<138 138 138 230 230 230 270 362>
LayerCount: 2
Fore
SplineSet
310 138 m 1
 310 362 l 1
 116 250 l 1
 310 138 l 1
65 267 m 2
 320 414 l 2
 323 416 326 417 330 417 c 0
 341 417 350 408 350 397 c 2
 350 270 l 1
 648 270 l 1
 648 397 l 2
 648 408 657 417 668 417 c 0
 672 417 675 416 678 414 c 2
 933 267 l 2
 935 266 938 263 940 260 c 0
 942 257 942 253 942 250 c 0
 942 243 939 236 933 233 c 2
 678 86 l 2
 675 84 672 83 668 83 c 0
 657 83 648 92 648 103 c 2
 648 230 l 1
 350 230 l 1
 350 103 l 2
 350 92 341 83 330 83 c 0
 326 83 323 84 320 86 c 2
 65 233 l 2
 59 236 56 243 56 250 c 0
 56 253 56 257 58 260 c 0
 60 263 63 266 65 267 c 2
688 138 m 1
 882 250 l 1
 688 362 l 1
 688 138 l 1
EndSplineSet
EndChar

StartChar: leftarrowtriangle
Encoding: 94 -1 93
Width: 1000
Flags: MW
HStem: 83 21<328 333.5> 230 40<350 922 350 922> 397 20G<328 350>
VStem: 310 40<138 230 270 362 362 362>
LayerCount: 2
Fore
SplineSet
922 270 m 2
 934 270 943 261 943 250 c 0
 943 239 934 230 922 230 c 2
 350 230 l 1
 350 103 l 2
 350 100 349 96 347 93 c 0
 343 87 337 83 330 83 c 0
 326 83 323 84 320 86 c 2
 65 233 l 2
 63 234 60 237 58 240 c 0
 56 243 55 247 55 251 c 0
 55 254 56 257 58 260 c 0
 60 263 63 266 65 267 c 2
 320 414 l 2
 323 416 326 417 330 417 c 0
 337 417 344 413 347 407 c 0
 349 404 350 400 350 397 c 2
 350 270 l 1
 922 270 l 2
310 138 m 1
 310 362 l 1
 116 250 l 1
 310 138 l 1
EndSplineSet
EndChar

StartChar: rightarrowtriangle
Encoding: 95 -1 94
Width: 1000
Flags: MW
HStem: 83 21<664.5 670> 230 40<70 648 76 648> 397 20G<648 670>
VStem: 648 40<138 138 138 230 230 230 270 362>
LayerCount: 2
Fore
SplineSet
76 230 m 2
 64 230 55 239 55 250 c 0
 55 261 64 270 76 270 c 2
 648 270 l 1
 648 397 l 2
 648 408 657 417 668 417 c 0
 672 417 675 416 678 414 c 2
 933 267 l 2
 939 264 942 257 942 250 c 0
 942 247 942 243 940 240 c 0
 938 237 935 234 933 233 c 2
 678 86 l 2
 675 84 672 83 668 83 c 0
 661 83 655 87 651 93 c 0
 649 96 648 100 648 103 c 2
 648 230 l 1
 76 230 l 2
688 138 m 1
 882 250 l 1
 688 362 l 1
 688 138 l 1
EndSplineSet
EndChar

StartChar: bigtriangledown
Encoding: 96 -1 95
Width: 833
Flags: MW
HStem: -1000 21<409 418> -67 67<136 696 136 136>
LayerCount: 2
Fore
SplineSet
57 -44 m 2
 56 -41 55 -37 55 -33 c 0
 55 -20 64 -7 78 -2 c 0
 81 -1 85 0 89 0 c 2
 743 0 l 2
 761 0 776 -15 776 -33 c 0
 776 -37 775 -41 774 -44 c 2
 447 -978 l 2
 444 -987 437 -995 427 -998 c 0
 423 -999 420 -1000 416 -1000 c 0
 402 -1000 389 -991 384 -978 c 2
 57 -44 l 2
696 -67 m 1
 136 -67 l 1
 416 -866 l 1
 696 -67 l 1
EndSplineSet
EndChar

StartChar: bigtriangleup
Encoding: 97 -1 96
Width: 833
Flags: MW
HStem: -1000 67<87 696 136 696 136 743> -20 20G<414 418>
LayerCount: 2
Fore
SplineSet
89 -1000 m 2
 85 -1000 81 -999 78 -998 c 0
 64 -993 55 -980 55 -967 c 0
 55 -963 56 -959 57 -956 c 2
 384 -22 l 2
 387 -13 395 -5 405 -2 c 0
 408 -1 412 0 416 0 c 0
 420 0 423 -1 427 -2 c 0
 437 -5 444 -13 447 -22 c 2
 774 -956 l 2
 775 -959 776 -963 776 -967 c 0
 776 -980 767 -993 754 -998 c 0
 750 -999 746 -1000 743 -1000 c 2
 89 -1000 l 2
696 -933 m 1
 416 -134 l 1
 136 -933 l 1
 696 -933 l 1
EndSplineSet
EndChar

StartChar: bigcurlyvee
Encoding: 98 -1 97
Width: 833
Flags: MW
HStem: -1000 21<406.5 425> -20 20G<83 91.5 739.5 748>
VStem: 382 67<-976 -783.5>
LayerCount: 2
Fore
SplineSet
72 -62 m 0
 61 -56 56 -45 56 -34 c 0
 56 -28 57 -22 60 -17 c 0
 66 -6 77 0 89 0 c 0
 94 0 100 -1 105 -4 c 0
 290 -111 376 -294 416 -497 c 1
 455 -294 541 -111 726 -4 c 0
 731 -1 737 0 742 0 c 0
 754 0 765 -6 771 -17 c 0
 774 -22 776 -28 776 -34 c 0
 776 -45 770 -56 759 -62 c 0
 474 -227 449 -600 449 -967 c 0
 449 -985 434 -1000 416 -1000 c 0
 397 -1000 382 -985 382 -967 c 0
 382 -600 357 -227 72 -62 c 0
EndSplineSet
EndChar

StartChar: bigcurlywedge
Encoding: 99 -1 98
Width: 833
Flags: MW
HStem: -1000 21<83 91.5 739.5 748> -20 20G<406.5 425>
VStem: 382 67<-216.5 -24>
LayerCount: 2
Fore
SplineSet
105 -996 m 0
 100 -999 94 -1000 89 -1000 c 0
 77 -1000 66 -994 60 -983 c 0
 57 -978 56 -972 56 -966 c 0
 56 -955 61 -944 72 -938 c 0
 357 -773 382 -400 382 -33 c 0
 382 -15 397 0 416 0 c 0
 434 0 449 -15 449 -33 c 0
 449 -400 474 -773 759 -938 c 0
 770 -944 776 -955 776 -966 c 0
 776 -972 774 -978 771 -983 c 0
 765 -994 754 -1000 742 -1000 c 0
 737 -1000 731 -999 726 -996 c 0
 541 -889 455 -706 416 -503 c 1
 376 -706 290 -889 105 -996 c 0
EndSplineSet
EndChar

StartChar: bigsqcap
Encoding: 100 -1 99
Width: 833
Flags: MW
HStem: -1000 21<79.5 98 733.5 752> -67 67<122 709 122 122>
VStem: 55 67<-967 -67> 709 67<-967 -67 -67 -67>
LayerCount: 2
Fore
SplineSet
122 -967 m 2
 122 -985 107 -1000 89 -1000 c 0
 70 -1000 55 -985 55 -967 c 2
 55 -33 l 2
 55 -15 70 0 89 0 c 2
 743 0 l 2
 761 0 776 -15 776 -33 c 2
 776 -967 l 2
 776 -985 761 -1000 743 -1000 c 0
 724 -1000 709 -985 709 -967 c 2
 709 -67 l 1
 122 -67 l 1
 122 -967 l 2
EndSplineSet
EndChar

StartChar: bigbox
Encoding: 101 -1 100
Width: 833
Flags: MW
HStem: -1000 67<79.5 709 122 709 122 743> -67 67<122 709 122 122>
VStem: 55 67<-933 -67 -933 -33 -933 -24> 709 67<-933 -67 -67 -67>
LayerCount: 2
Fore
SplineSet
55 -967 m 2
 55 -33 l 2
 55 -15 70 0 89 0 c 2
 743 0 l 2
 761 0 776 -15 776 -33 c 2
 776 -967 l 2
 776 -985 761 -1000 743 -1000 c 2
 89 -1000 l 2
 70 -1000 55 -985 55 -967 c 2
709 -67 m 1
 122 -67 l 1
 122 -933 l 1
 709 -933 l 1
 709 -67 l 1
EndSplineSet
EndChar

StartChar: bigparallel
Encoding: 102 -1 101
Width: 444
Flags: MW
HStem: -1000 21<79.5 98 344.5 363> -20 20G<79.5 98 344.5 363>
VStem: 55 67<-967 -33> 320 67<-967 -33>
LayerCount: 2
Fore
SplineSet
55 -33 m 2
 55 -15 70 0 89 0 c 0
 107 0 122 -15 122 -33 c 2
 122 -967 l 2
 122 -985 107 -1000 89 -1000 c 0
 70 -1000 55 -985 55 -967 c 2
 55 -33 l 2
387 -967 m 2
 387 -985 372 -1000 354 -1000 c 0
 335 -1000 320 -985 320 -967 c 2
 320 -33 l 2
 320 -15 335 0 354 0 c 0
 372 0 387 -15 387 -33 c 2
 387 -967 l 2
EndSplineSet
EndChar

StartChar: biginterleave
Encoding: 103 -1 102
Width: 611
Flags: MW
HStem: -1000 21<79.5 98 328.5 347 577.5 596> -20 20G<79.5 98 328.5 347 577.5 596>
VStem: 56 66<-967 -33> 305 66<-967 -33> 554 66<-967 -33>
LayerCount: 2
Fore
SplineSet
56 -33 m 2
 56 -15 70 0 89 0 c 0
 107 0 122 -15 122 -33 c 2
 122 -967 l 2
 122 -985 107 -1000 89 -1000 c 0
 70 -1000 56 -985 56 -967 c 2
 56 -33 l 2
554 -33 m 2
 554 -15 568 0 587 0 c 0
 605 0 620 -15 620 -33 c 2
 620 -967 l 2
 620 -985 605 -1000 587 -1000 c 0
 568 -1000 554 -985 554 -967 c 2
 554 -33 l 2
305 -33 m 2
 305 -15 319 0 338 0 c 0
 356 0 371 -15 371 -33 c 2
 371 -967 l 2
 371 -985 356 -1000 338 -1000 c 0
 319 -1000 305 -985 305 -967 c 2
 305 -33 l 2
EndSplineSet
EndChar

StartChar: hugetriangledown
Encoding: 104 -1 103
Width: 1111
Flags: MW
HStem: -1400 21<551.5 556> -81 81<152 957 152 152>
LayerCount: 2
Fore
SplineSet
541 -1398 m 0
 529 -1394 520 -1384 517 -1373 c 2
 58 -54 l 2
 56 -49 55 -45 55 -40 c 0
 55 -18 73 0 96 0 c 2
 1013 0 l 2
 1018 0 1022 -1 1027 -2 c 0
 1042 -8 1054 -23 1054 -40 c 0
 1054 -45 1053 -49 1051 -54 c 2
 593 -1373 l 2
 589 -1384 580 -1394 568 -1398 c 0
 563 -1400 558 -1400 554 -1400 c 0
 549 -1400 545 -1400 541 -1398 c 0
957 -81 m 1
 152 -81 l 1
 555 -1237 l 1
 957 -81 l 1
EndSplineSet
EndChar

StartChar: hugetriangleup
Encoding: 105 -1 104
Width: 1111
Flags: MW
HStem: -1400 81<84.5 957 152 957 152 1013> -20 20G<552 562.5>
LayerCount: 2
Fore
SplineSet
96 -1400 m 2
 73 -1400 55 -1382 55 -1360 c 0
 55 -1355 56 -1351 58 -1347 c 2
 517 -27 l 2
 521 -15 530 -6 541 -2 c 0
 545 -1 550 0 554 0 c 0
 571 0 587 -10 593 -27 c 2
 1051 -1347 l 2
 1053 -1351 1054 -1355 1054 -1360 c 0
 1054 -1376 1043 -1392 1027 -1398 c 0
 1022 -1399 1018 -1400 1013 -1400 c 2
 96 -1400 l 2
957 -1319 m 1
 555 -163 l 1
 152 -1319 l 1
 957 -1319 l 1
EndSplineSet
EndChar

StartChar: hugecurlyvee
Encoding: 106 -1 105
Width: 1111
Flags: MW
HStem: -1400 21<543.5 566> -20 20G<89 99.5 1009.5 1020>
VStem: 514 81<-1371 -1101.5>
LayerCount: 2
Fore
SplineSet
76 -75 m 0
 63 -68 56 -54 56 -40 c 0
 56 -33 57 -26 61 -20 c 0
 68 -7 82 0 96 0 c 0
 103 0 110 -1 116 -5 c 0
 384 -160 502 -429 555 -727 c 1
 607 -429 725 -160 993 -5 c 0
 999 -1 1006 0 1013 0 c 0
 1027 0 1041 -7 1048 -20 c 0
 1052 -26 1053 -33 1053 -40 c 0
 1053 -54 1047 -68 1034 -75 c 0
 627 -310 595 -843 595 -1360 c 0
 595 -1382 577 -1400 555 -1400 c 0
 532 -1400 514 -1382 514 -1360 c 0
 514 -843 482 -310 76 -75 c 0
EndSplineSet
EndChar

StartChar: hugecurlywedge
Encoding: 107 -1 106
Width: 1111
Flags: MW
HStem: -1400 21<89 99.5 1009.5 1020> -20 20G<543.5 566>
VStem: 514 81<-298.5 -29>
LayerCount: 2
Fore
SplineSet
116 -1395 m 0
 110 -1399 103 -1400 96 -1400 c 0
 82 -1400 68 -1393 61 -1380 c 0
 57 -1374 56 -1367 56 -1360 c 0
 56 -1346 63 -1332 76 -1325 c 0
 482 -1090 514 -557 514 -40 c 0
 514 -18 532 0 555 0 c 0
 577 0 595 -18 595 -40 c 0
 595 -557 627 -1090 1034 -1325 c 0
 1047 -1332 1053 -1346 1053 -1360 c 0
 1053 -1367 1052 -1374 1048 -1380 c 0
 1041 -1393 1027 -1400 1013 -1400 c 0
 1006 -1400 999 -1399 993 -1395 c 0
 725 -1240 607 -971 555 -673 c 1
 502 -971 384 -1240 116 -1395 c 0
EndSplineSet
EndChar

StartChar: hugesqcap
Encoding: 108 -1 107
Width: 1111
Flags: MW
HStem: -1398 21<83.5 106.5 1001.5 1024.5> -81 81<136 136 136 973>
VStem: 55 81<-1357 -81> 973 81<-1357 -81 -81 -81>
LayerCount: 2
Fore
SplineSet
136 -81 m 1
 136 -1357 l 2
 136 -1380 118 -1398 95 -1398 c 0
 72 -1398 55 -1380 55 -1357 c 2
 55 -40 l 2
 55 -18 73 0 96 0 c 2
 1013 0 l 2
 1036 0 1054 -18 1054 -40 c 2
 1054 -1357 l 2
 1054 -1380 1036 -1398 1013 -1398 c 0
 990 -1398 973 -1380 973 -1357 c 2
 973 -81 l 1
 136 -81 l 1
EndSplineSet
EndChar

StartChar: hugebox
Encoding: 109 -1 108
Width: 1111
Flags: MW
HStem: -1400 81<84.5 974 136 974 136 1013> -81 81<136 136 136 974>
VStem: 55 81<-1319 -81 -1319 -40 -1319 -29.5> 974 81<-1319 -81 -81 -81>
LayerCount: 2
Fore
SplineSet
96 -1400 m 2
 73 -1400 55 -1383 55 -1361 c 2
 55 -40 l 2
 55 -19 71 0 93 0 c 2
 1014 0 l 2
 1037 0 1055 -18 1055 -40 c 2
 1055 -1357 l 2
 1055 -1379 1037 -1400 1013 -1400 c 2
 96 -1400 l 2
136 -81 m 1
 136 -1319 l 1
 974 -1319 l 1
 974 -81 l 1
 136 -81 l 1
EndSplineSet
EndChar

StartChar: hugeparallel
Encoding: 110 -1 109
Width: 556
Flags: MW
HStem: -1400 21<84.5 107 447 469> -20 20G<84.5 107 447 469>
VStem: 55 81<-1360 -40> 418 81<-1360 -40>
LayerCount: 2
Fore
SplineSet
55 -40 m 2
 55 -18 73 0 96 0 c 0
 118 0 136 -18 136 -40 c 2
 136 -1360 l 2
 136 -1382 118 -1400 96 -1400 c 0
 73 -1400 55 -1382 55 -1360 c 2
 55 -40 l 2
499 -1360 m 2
 499 -1382 480 -1400 458 -1400 c 0
 436 -1400 418 -1382 418 -1360 c 2
 418 -40 l 2
 418 -18 436 0 458 0 c 0
 480 0 499 -18 499 -40 c 2
 499 -1360 l 2
EndSplineSet
EndChar

StartChar: hugeinterleave
Encoding: 111 -1 110
Width: 833
Flags: MW
HStem: -1400 21<85 107 445 467 805 827> -20 20G<85 107 445 467 805 827>
VStem: 56 80<-1360 -40> 416 80<-1360 -40> 776 80<-1360 -40>
LayerCount: 2
Fore
SplineSet
56 -40 m 2
 56 -18 74 0 96 0 c 0
 118 0 136 -18 136 -40 c 2
 136 -1360 l 2
 136 -1382 118 -1400 96 -1400 c 0
 74 -1400 56 -1382 56 -1360 c 2
 56 -40 l 2
776 -40 m 2
 776 -18 794 0 816 0 c 0
 838 0 856 -18 856 -40 c 2
 856 -1360 l 2
 856 -1382 838 -1400 816 -1400 c 0
 794 -1400 776 -1382 776 -1360 c 2
 776 -40 l 2
416 -40 m 2
 416 -18 434 0 456 0 c 0
 478 0 496 -18 496 -40 c 2
 496 -1360 l 2
 496 -1382 478 -1400 456 -1400 c 0
 434 -1400 416 -1382 416 -1360 c 2
 416 -40 l 2
EndSplineSet
EndChar

StartChar: hugenplus
Encoding: 112 -1 111
Width: 833
Flags: MW
HStem: -1000 21<79.5 98 733.5 752> -561 66G<213 382 222 382 449 609> -67 67G<335.5 496.5>
VStem: 55 67<-967 -344> 382 67<-722 -561 -495 -334> 709 67<-967 -344>
LayerCount: 2
Fore
SplineSet
122 -967 m 2
 122 -985 107 -1000 89 -1000 c 0
 70 -1000 55 -985 55 -967 c 2
 55 -344 l 2
 55 -150 221 0 416 0 c 0
 610 0 776 -150 776 -344 c 2
 776 -967 l 2
 776 -985 761 -1000 743 -1000 c 0
 724 -1000 709 -985 709 -967 c 2
 709 -344 l 2
 709 -190 577 -67 416 -67 c 0
 255 -67 122 -190 122 -344 c 2
 122 -967 l 2
222 -561 m 2
 204 -561 189 -546 189 -528 c 0
 189 -510 204 -495 222 -495 c 2
 382 -495 l 1
 382 -334 l 2
 382 -316 397 -301 416 -301 c 0
 434 -301 449 -316 449 -334 c 2
 449 -495 l 1
 609 -495 l 2
 628 -495 643 -510 643 -528 c 0
 643 -546 628 -561 609 -561 c 2
 449 -561 l 1
 449 -722 l 2
 449 -740 434 -755 416 -755 c 0
 397 -755 382 -740 382 -722 c 2
 382 -561 l 1
 222 -561 l 2
EndSplineSet
EndChar

StartChar: largellbracket
Encoding: 113 -1 112
Width: 528
Flags: MW
HStem: -1158 40<209.5 333 242 333 373 493> 0 40<242 333 242 242 373 493 373 373>
VStem: 202 40<-1118 0 -1118 29 -1118 32> 333 40<-1118 0 -1118 0>
LayerCount: 2
Fore
SplineSet
202 -1147 m 2
 202 29 l 2
 202 35 206 40 213 40 c 2
 493 40 l 2
 499 40 504 35 504 29 c 2
 504 11 l 2
 504 5 499 0 493 0 c 2
 373 0 l 1
 373 -1118 l 1
 493 -1118 l 2
 499 -1118 504 -1123 504 -1129 c 2
 504 -1147 l 2
 504 -1153 499 -1158 493 -1158 c 2
 213 -1158 l 2
 206 -1158 202 -1153 202 -1147 c 2
333 0 m 1
 242 0 l 1
 242 -1118 l 1
 333 -1118 l 1
 333 0 l 1
EndSplineSet
EndChar

StartChar: Largellbracket
Encoding: 114 -1 113
Width: 583
Flags: MW
HStem: -1758 47<234 371 273 371 418 552> -7 47<273 371 273 273 418 552 418 418>
VStem: 226 47<-1711 -7 -1711 29 -1711 32> 371 47<-1711 -7 -1711 -7>
LayerCount: 2
Fore
SplineSet
226 -1747 m 2
 226 29 l 2
 226 35 231 40 237 40 c 2
 552 40 l 2
 558 40 563 35 563 29 c 2
 563 4 l 2
 563 -2 558 -7 552 -7 c 2
 418 -7 l 1
 418 -1711 l 1
 552 -1711 l 2
 558 -1711 563 -1716 563 -1722 c 2
 563 -1747 l 2
 563 -1753 558 -1758 552 -1758 c 2
 237 -1758 l 2
 231 -1758 226 -1753 226 -1747 c 2
371 -7 m 1
 273 -7 l 1
 273 -1711 l 1
 371 -1711 l 1
 371 -7 l 1
EndSplineSet
EndChar

StartChar: LARGEllbracket
Encoding: 115 -1 114
Width: 639
Flags: MW
HStem: -2358 53<258.5 410 304 410 463 611> -13 53<304 410 304 304 463 611 463 463>
VStem: 251 53<-2305 -13 -2305 29 -2305 32> 410 53<-2305 -13 -2305 -13>
LayerCount: 2
Fore
SplineSet
251 -2347 m 2
 251 29 l 2
 251 35 255 40 262 40 c 2
 611 40 l 2
 617 40 622 35 622 29 c 2
 622 -2 l 2
 622 -8 617 -13 611 -13 c 2
 463 -13 l 1
 463 -2305 l 1
 611 -2305 l 2
 617 -2305 622 -2310 622 -2316 c 2
 622 -2347 l 2
 622 -2353 617 -2358 611 -2358 c 2
 262 -2358 l 2
 255 -2358 251 -2353 251 -2347 c 2
410 -13 m 1
 304 -13 l 1
 304 -2305 l 1
 410 -2305 l 1
 410 -13 l 1
EndSplineSet
EndChar

StartChar: hugellbracket
Encoding: 116 -1 115
Width: 694
Flags: MW
HStem: -2958 60<283 448 335 448 508 670> -20 60<335 448 335 335 508 670 508 508>
VStem: 275 60<-2898 -20 -2898 29 -2898 32> 448 60<-2898 -20 -2898 -20>
LayerCount: 2
Fore
SplineSet
275 -2947 m 2
 275 29 l 2
 275 35 280 40 286 40 c 2
 670 40 l 2
 676 40 681 35 681 29 c 2
 681 -9 l 2
 681 -15 676 -20 670 -20 c 2
 508 -20 l 1
 508 -2898 l 1
 670 -2898 l 2
 676 -2898 681 -2903 681 -2909 c 2
 681 -2947 l 2
 681 -2953 676 -2958 670 -2958 c 2
 286 -2958 l 2
 280 -2958 275 -2953 275 -2947 c 2
448 -20 m 1
 335 -20 l 1
 335 -2898 l 1
 448 -2898 l 1
 448 -20 l 1
EndSplineSet
EndChar

StartChar: Hugellbrackettop
Encoding: 117 -1 116
Width: 778
Flags: MW
HStem: -1771 21<335 338 338 383 533 536 536 581> -29 67<394 525 394 394 592 756 592 592>
VStem: 327 67<-1760 -29> 525 67<-1760 -29>
LayerCount: 2
Fore
SplineSet
327 -1760 m 2
 327 27 l 2
 327 33 332 38 338 38 c 2
 756 38 l 2
 763 38 768 33 768 27 c 2
 768 -18 l 2
 768 -24 763 -29 756 -29 c 2
 592 -29 l 1
 592 -1760 l 2
 592 -1766 587 -1771 581 -1771 c 2
 536 -1771 l 2
 530 -1771 525 -1766 525 -1760 c 2
 525 -29 l 1
 394 -29 l 1
 394 -1760 l 2
 394 -1766 389 -1771 383 -1771 c 2
 338 -1771 l 2
 332 -1771 327 -1766 327 -1760 c 2
EndSplineSet
EndChar

StartChar: Hugellbracketbot
Encoding: 118 -1 117
Width: 778
Flags: MW
HStem: -1758 67<335 525 394 525 592 756> 31 20G<338 383 383 386 536 581 581 584>
VStem: 327 67<-1691 40 -1691 40 -1691 43> 525 67<-1691 40 -1691 43>
LayerCount: 2
Fore
SplineSet
327 -1747 m 2
 327 40 l 2
 327 46 332 51 338 51 c 2
 383 51 l 2
 389 51 394 46 394 40 c 2
 394 -1691 l 1
 525 -1691 l 1
 525 40 l 2
 525 46 530 51 536 51 c 2
 581 51 l 2
 587 51 592 46 592 40 c 2
 592 -1691 l 1
 756 -1691 l 2
 763 -1691 768 -1696 768 -1702 c 2
 768 -1747 l 2
 768 -1753 763 -1758 756 -1758 c 2
 338 -1758 l 2
 332 -1758 327 -1753 327 -1747 c 2
EndSplineSet
EndChar

StartChar: Hugellbracketex
Encoding: 119 -1 118
Width: 778
Flags: MW
HStem: -602 21<335 338 338 383 533 536 536 581> -7 20G<338 383 383 386 536 581 581 584>
VStem: 327 67<-591 2> 525 67<-591 2>
LayerCount: 2
Fore
SplineSet
327 -591 m 2
 327 2 l 2
 327 8 332 13 338 13 c 2
 383 13 l 2
 389 13 394 8 394 2 c 2
 394 -591 l 2
 394 -597 389 -602 383 -602 c 2
 338 -602 l 2
 332 -602 327 -597 327 -591 c 2
525 -591 m 2
 525 2 l 2
 525 8 530 13 536 13 c 2
 581 13 l 2
 587 13 592 8 592 2 c 2
 592 -591 l 2
 592 -597 587 -602 581 -602 c 2
 536 -602 l 2
 530 -602 525 -597 525 -591 c 2
EndSplineSet
EndChar

StartChar: Hugenplus
Encoding: 120 -1 119
Width: 1111
Flags: MW
HStem: -1400 21<84.5 107 1002 1024.5> -780 81G<246 514 257 514 595 852> -81 81G<440 669.5>
VStem: 55 81<-1360 -480> 514 81<-1037 -780 -699 -442> 973 81<-1360 -480>
LayerCount: 2
Fore
SplineSet
136 -1360 m 2
 136 -1382 118 -1400 96 -1400 c 0
 73 -1400 55 -1382 55 -1360 c 2
 55 -480 l 2
 55 -210 284 0 555 0 c 0
 825 0 1054 -210 1054 -480 c 2
 1054 -1360 l 2
 1054 -1382 1036 -1400 1013 -1400 c 0
 991 -1400 973 -1382 973 -1360 c 2
 973 -480 l 2
 973 -257 784 -81 555 -81 c 0
 325 -81 136 -257 136 -480 c 2
 136 -1360 l 2
257 -780 m 2
 235 -780 217 -762 217 -740 c 0
 217 -717 235 -699 257 -699 c 2
 514 -699 l 1
 514 -442 l 2
 514 -420 532 -402 555 -402 c 0
 577 -402 595 -420 595 -442 c 2
 595 -699 l 1
 852 -699 l 2
 875 -699 893 -717 893 -740 c 0
 893 -762 875 -780 852 -780 c 2
 595 -780 l 1
 595 -1037 l 2
 595 -1060 577 -1078 555 -1078 c 0
 532 -1078 514 -1060 514 -1037 c 2
 514 -780 l 1
 257 -780 l 2
EndSplineSet
EndChar

StartChar: largerrbracket
Encoding: 121 -1 120
Width: 528
Flags: MW
HStem: -1158 40<29.5 153 33 153 193 284> 0 40<29.5 313 33 153 193 284 193 193>
VStem: 153 40<-1118 0> 284 40<-1118 0 0 0>
LayerCount: 2
Fore
SplineSet
193 -1118 m 1
 284 -1118 l 1
 284 0 l 1
 193 0 l 1
 193 -1118 l 1
324 -1147 m 2
 324 -1153 319 -1158 313 -1158 c 2
 33 -1158 l 2
 26 -1158 21 -1153 21 -1147 c 2
 21 -1129 l 2
 21 -1123 26 -1118 33 -1118 c 2
 153 -1118 l 1
 153 0 l 1
 33 0 l 2
 26 0 21 5 21 11 c 2
 21 29 l 2
 21 35 26 40 33 40 c 2
 313 40 l 2
 319 40 324 35 324 29 c 2
 324 -1147 l 2
EndSplineSet
EndChar

StartChar: Largerrbracket
Encoding: 122 -1 121
Width: 583
Flags: MW
HStem: -1758 47<26 163 29 163 210 309> -7 47<26 344 29 163 210 309 210 210>
VStem: 163 47<-1711 -7> 309 46<-1711 -7 -7 -7>
LayerCount: 2
Fore
SplineSet
210 -1711 m 1
 309 -1711 l 1
 309 -7 l 1
 210 -7 l 1
 210 -1711 l 1
355 29 m 2
 355 -1747 l 2
 355 -1753 350 -1758 344 -1758 c 2
 29 -1758 l 2
 23 -1758 18 -1753 18 -1747 c 2
 18 -1722 l 2
 18 -1716 23 -1711 29 -1711 c 2
 163 -1711 l 1
 163 -7 l 1
 29 -7 l 2
 23 -7 18 -2 18 4 c 2
 18 29 l 2
 18 35 23 40 29 40 c 2
 344 40 l 2
 350 40 355 35 355 29 c 2
EndSplineSet
EndChar

StartChar: LARGErrbracket
Encoding: 123 -1 122
Width: 639
Flags: MW
HStem: -2358 53<23 174 26 174 227 333> -13 53<23 375 26 174 227 333 227 227>
VStem: 174 53<-2305 -13> 333 53<-2305 -13 -13 -13>
LayerCount: 2
Fore
SplineSet
227 -2305 m 1
 333 -2305 l 1
 333 -13 l 1
 227 -13 l 1
 227 -2305 l 1
386 29 m 2
 386 -2347 l 2
 386 -2353 381 -2358 375 -2358 c 2
 26 -2358 l 2
 20 -2358 15 -2353 15 -2347 c 2
 15 -2316 l 2
 15 -2310 20 -2305 26 -2305 c 2
 174 -2305 l 1
 174 -13 l 1
 26 -13 l 2
 20 -13 15 -8 15 -2 c 2
 15 29 l 2
 15 35 20 40 26 40 c 2
 375 40 l 2
 381 40 386 35 386 29 c 2
EndSplineSet
EndChar

StartChar: hugerrbracket
Encoding: 124 -1 123
Width: 694
Flags: MW
HStem: -2958 60<19.5 184 23 184 244 357> -20 60<19.5 406 23 184 244 357 244 244>
VStem: 184 60<-2898 -20> 357 60<-2898 -20 -20 -20>
LayerCount: 2
Fore
SplineSet
244 -2898 m 1
 357 -2898 l 1
 357 -20 l 1
 244 -20 l 1
 244 -2898 l 1
417 29 m 2
 417 -2947 l 2
 417 -2953 412 -2958 406 -2958 c 2
 23 -2958 l 2
 16 -2958 11 -2953 11 -2947 c 2
 11 -2909 l 2
 11 -2903 16 -2898 23 -2898 c 2
 184 -2898 l 1
 184 -20 l 1
 23 -20 l 2
 16 -20 11 -15 11 -9 c 2
 11 29 l 2
 11 35 16 40 23 40 c 2
 406 40 l 2
 412 40 417 35 417 29 c 2
EndSplineSet
EndChar

StartChar: Hugerrbrackettop
Encoding: 125 -1 124
Width: 778
Flags: MW
HStem: -1771 21<192 195 195 239 390 393 393 437> -29 67<16 437 19 184 251 382 251 251>
VStem: 184 67<-1760 -29> 382 67<-1760 -29 -29 -29>
LayerCount: 2
Fore
SplineSet
393 -1771 m 2
 387 -1771 382 -1766 382 -1760 c 2
 382 -29 l 1
 251 -29 l 1
 251 -1760 l 2
 251 -1766 246 -1771 239 -1771 c 2
 195 -1771 l 2
 189 -1771 184 -1766 184 -1760 c 2
 184 -29 l 1
 19 -29 l 2
 13 -29 8 -24 8 -18 c 2
 8 27 l 2
 8 33 13 38 19 38 c 2
 437 38 l 2
 444 38 449 33 449 27 c 2
 449 -1760 l 2
 449 -1766 444 -1771 437 -1771 c 2
 393 -1771 l 2
EndSplineSet
EndChar

StartChar: Hugerrbracketbot
Encoding: 126 -1 125
Width: 778
Flags: MW
HStem: -1758 67<16 184 19 184 251 382> 31 20G<195 239 239 242.5 393 437 437 440.5>
VStem: 184 67<-1691 40 -1691 43> 382 67<-1691 40>
LayerCount: 2
Fore
SplineSet
382 -1691 m 1
 382 40 l 2
 382 46 387 51 393 51 c 2
 437 51 l 2
 444 51 449 46 449 40 c 2
 449 -1747 l 2
 449 -1753 444 -1758 437 -1758 c 2
 19 -1758 l 2
 13 -1758 8 -1753 8 -1747 c 2
 8 -1702 l 2
 8 -1696 13 -1691 19 -1691 c 2
 184 -1691 l 1
 184 40 l 2
 184 46 189 51 195 51 c 2
 239 51 l 2
 246 51 251 46 251 40 c 2
 251 -1691 l 1
 382 -1691 l 1
EndSplineSet
EndChar

StartChar: Hugerrbracketex
Encoding: 127 -1 126
Width: 778
Flags: MW
HStem: -602 21<192 195 195 239 390 393 393 437> -7 20G<195 239 239 242.5 393 437 437 440.5>
VStem: 184 67<-591 2> 382 67<-591 2>
LayerCount: 2
Fore
SplineSet
382 -591 m 2
 382 2 l 2
 382 8 387 13 393 13 c 2
 437 13 l 2
 444 13 449 8 449 2 c 2
 449 -591 l 2
 449 -597 444 -602 437 -602 c 2
 393 -602 l 2
 387 -602 382 -597 382 -591 c 2
184 -591 m 2
 184 2 l 2
 184 8 189 13 195 13 c 2
 239 13 l 2
 246 13 251 8 251 2 c 2
 251 -591 l 2
 251 -597 246 -602 239 -602 c 2
 195 -602 l 2
 189 -602 184 -597 184 -591 c 2
EndSplineSet
EndChar

StartChar: shortleftarrow
Encoding: 0 8592 127
Width: 778
Flags: MW
HStem: 72 21<226.5 229 229 237> 230 40<139 700 139 700> 408 20G<229 237 237 240>
LayerCount: 2
Fore
SplineSet
229 72 m 2
 224 72 220 75 218 79 c 0
 191 152 134 210 62 240 c 0
 60 241 57 243 56 246 c 2
 55 249 l 1
 55 253 58 258 62 260 c 0
 134 290 191 348 218 421 c 0
 220 425 224 428 229 428 c 2
 237 428 l 2
 243 428 248 422 248 417 c 0
 248 415 248 414 247 413 c 0
 225 355 188 306 139 270 c 1
 700 270 l 2
 713 270 720 260 720 250 c 0
 720 240 713 230 700 230 c 2
 139 230 l 1
 188 194 225 145 247 87 c 0
 248 86 248 85 248 83 c 0
 248 77 243 72 237 72 c 2
 229 72 l 2
EndSplineSet
EndChar
